<?xml version="1.0" encoding="utf-8" standalone="no"?>
<!DOCTYPE svg PUBLIC "-//W3C//DTD SVG 1.1//EN"
  "http://www.w3.org/Graphics/SVG/1.1/DTD/svg11.dtd">
<svg xmlns:xlink="http://www.w3.org/1999/xlink" width="460.8pt" height="345.6pt" viewBox="0 0 460.8 345.6" xmlns="http://www.w3.org/2000/svg" version="1.1">
 <metadata>
  <rdf:RDF xmlns:dc="http://purl.org/dc/elements/1.1/" xmlns:cc="http://creativecommons.org/ns#" xmlns:rdf="http://www.w3.org/1999/02/22-rdf-syntax-ns#">
   <cc:Work>
    <dc:type rdf:resource="http://purl.org/dc/dcmitype/StillImage"/>
    <dc:date>2023-10-19T12:21:54.501474</dc:date>
    <dc:format>image/svg+xml</dc:format>
    <dc:creator>
     <cc:Agent>
      <dc:title>Matplotlib v3.8.0, https://matplotlib.org/</dc:title>
     </cc:Agent>
    </dc:creator>
   </cc:Work>
  </rdf:RDF>
 </metadata>
 <defs>
  <style type="text/css">*{stroke-linejoin: round; stroke-linecap: butt}</style>
 </defs>
 <g id="figure_1">
  <g id="patch_1">
   <path d="M 0 345.6 
L 460.8 345.6 
L 460.8 0 
L 0 0 
z
" style="fill: #ffffff"/>
  </g>
  <g id="axes_1">
   <g id="patch_2">
    <path d="M 57.6 307.584 
L 414.72 307.584 
L 414.72 41.472 
L 57.6 41.472 
z
" style="fill: #ffffff"/>
   </g>
   <g id="matplotlib.axis_1">
    <g id="xtick_1">
     <g id="line2d_1">
      <defs>
       <path id="mdc69cca776" d="M 0 0 
L 0 3.5 
" style="stroke: #000000; stroke-width: 0.8"/>
      </defs>
      <g>
       <use xlink:href="#mdc69cca776" x="110.310766" y="307.584" style="stroke: #000000; stroke-width: 0.8"/>
      </g>
     </g>
     <g id="text_1">
      <!-- 20 -->
      <g transform="translate(103.948266 322.182437) scale(0.1 -0.1)">
       <defs>
        <path id="DejaVuSans-32" d="M 1228 531 
L 3431 531 
L 3431 0 
L 469 0 
L 469 531 
Q 828 903 1448 1529 
Q 2069 2156 2228 2338 
Q 2531 2678 2651 2914 
Q 2772 3150 2772 3378 
Q 2772 3750 2511 3984 
Q 2250 4219 1831 4219 
Q 1534 4219 1204 4116 
Q 875 4013 500 3803 
L 500 4441 
Q 881 4594 1212 4672 
Q 1544 4750 1819 4750 
Q 2544 4750 2975 4387 
Q 3406 4025 3406 3419 
Q 3406 3131 3298 2873 
Q 3191 2616 2906 2266 
Q 2828 2175 2409 1742 
Q 1991 1309 1228 531 
z
" transform="scale(0.015625)"/>
        <path id="DejaVuSans-30" d="M 2034 4250 
Q 1547 4250 1301 3770 
Q 1056 3291 1056 2328 
Q 1056 1369 1301 889 
Q 1547 409 2034 409 
Q 2525 409 2770 889 
Q 3016 1369 3016 2328 
Q 3016 3291 2770 3770 
Q 2525 4250 2034 4250 
z
M 2034 4750 
Q 2819 4750 3233 4129 
Q 3647 3509 3647 2328 
Q 3647 1150 3233 529 
Q 2819 -91 2034 -91 
Q 1250 -91 836 529 
Q 422 1150 422 2328 
Q 422 3509 836 4129 
Q 1250 4750 2034 4750 
z
" transform="scale(0.015625)"/>
       </defs>
       <use xlink:href="#DejaVuSans-32"/>
       <use xlink:href="#DejaVuSans-30" x="63.623047"/>
      </g>
     </g>
    </g>
    <g id="xtick_2">
     <g id="line2d_2">
      <g>
       <use xlink:href="#mdc69cca776" x="183.266844" y="307.584" style="stroke: #000000; stroke-width: 0.8"/>
      </g>
     </g>
     <g id="text_2">
      <!-- 40 -->
      <g transform="translate(176.904344 322.182437) scale(0.1 -0.1)">
       <defs>
        <path id="DejaVuSans-34" d="M 2419 4116 
L 825 1625 
L 2419 1625 
L 2419 4116 
z
M 2253 4666 
L 3047 4666 
L 3047 1625 
L 3713 1625 
L 3713 1100 
L 3047 1100 
L 3047 0 
L 2419 0 
L 2419 1100 
L 313 1100 
L 313 1709 
L 2253 4666 
z
" transform="scale(0.015625)"/>
       </defs>
       <use xlink:href="#DejaVuSans-34"/>
       <use xlink:href="#DejaVuSans-30" x="63.623047"/>
      </g>
     </g>
    </g>
    <g id="xtick_3">
     <g id="line2d_3">
      <g>
       <use xlink:href="#mdc69cca776" x="256.222921" y="307.584" style="stroke: #000000; stroke-width: 0.8"/>
      </g>
     </g>
     <g id="text_3">
      <!-- 60 -->
      <g transform="translate(249.860421 322.182437) scale(0.1 -0.1)">
       <defs>
        <path id="DejaVuSans-36" d="M 2113 2584 
Q 1688 2584 1439 2293 
Q 1191 2003 1191 1497 
Q 1191 994 1439 701 
Q 1688 409 2113 409 
Q 2538 409 2786 701 
Q 3034 994 3034 1497 
Q 3034 2003 2786 2293 
Q 2538 2584 2113 2584 
z
M 3366 4563 
L 3366 3988 
Q 3128 4100 2886 4159 
Q 2644 4219 2406 4219 
Q 1781 4219 1451 3797 
Q 1122 3375 1075 2522 
Q 1259 2794 1537 2939 
Q 1816 3084 2150 3084 
Q 2853 3084 3261 2657 
Q 3669 2231 3669 1497 
Q 3669 778 3244 343 
Q 2819 -91 2113 -91 
Q 1303 -91 875 529 
Q 447 1150 447 2328 
Q 447 3434 972 4092 
Q 1497 4750 2381 4750 
Q 2619 4750 2861 4703 
Q 3103 4656 3366 4563 
z
" transform="scale(0.015625)"/>
       </defs>
       <use xlink:href="#DejaVuSans-36"/>
       <use xlink:href="#DejaVuSans-30" x="63.623047"/>
      </g>
     </g>
    </g>
    <g id="xtick_4">
     <g id="line2d_4">
      <g>
       <use xlink:href="#mdc69cca776" x="329.178999" y="307.584" style="stroke: #000000; stroke-width: 0.8"/>
      </g>
     </g>
     <g id="text_4">
      <!-- 80 -->
      <g transform="translate(322.816499 322.182437) scale(0.1 -0.1)">
       <defs>
        <path id="DejaVuSans-38" d="M 2034 2216 
Q 1584 2216 1326 1975 
Q 1069 1734 1069 1313 
Q 1069 891 1326 650 
Q 1584 409 2034 409 
Q 2484 409 2743 651 
Q 3003 894 3003 1313 
Q 3003 1734 2745 1975 
Q 2488 2216 2034 2216 
z
M 1403 2484 
Q 997 2584 770 2862 
Q 544 3141 544 3541 
Q 544 4100 942 4425 
Q 1341 4750 2034 4750 
Q 2731 4750 3128 4425 
Q 3525 4100 3525 3541 
Q 3525 3141 3298 2862 
Q 3072 2584 2669 2484 
Q 3125 2378 3379 2068 
Q 3634 1759 3634 1313 
Q 3634 634 3220 271 
Q 2806 -91 2034 -91 
Q 1263 -91 848 271 
Q 434 634 434 1313 
Q 434 1759 690 2068 
Q 947 2378 1403 2484 
z
M 1172 3481 
Q 1172 3119 1398 2916 
Q 1625 2713 2034 2713 
Q 2441 2713 2670 2916 
Q 2900 3119 2900 3481 
Q 2900 3844 2670 4047 
Q 2441 4250 2034 4250 
Q 1625 4250 1398 4047 
Q 1172 3844 1172 3481 
z
" transform="scale(0.015625)"/>
       </defs>
       <use xlink:href="#DejaVuSans-38"/>
       <use xlink:href="#DejaVuSans-30" x="63.623047"/>
      </g>
     </g>
    </g>
    <g id="xtick_5">
     <g id="line2d_5">
      <g>
       <use xlink:href="#mdc69cca776" x="402.135077" y="307.584" style="stroke: #000000; stroke-width: 0.8"/>
      </g>
     </g>
     <g id="text_5">
      <!-- 100 -->
      <g transform="translate(392.591327 322.182437) scale(0.1 -0.1)">
       <defs>
        <path id="DejaVuSans-31" d="M 794 531 
L 1825 531 
L 1825 4091 
L 703 3866 
L 703 4441 
L 1819 4666 
L 2450 4666 
L 2450 531 
L 3481 531 
L 3481 0 
L 794 0 
L 794 531 
z
" transform="scale(0.015625)"/>
       </defs>
       <use xlink:href="#DejaVuSans-31"/>
       <use xlink:href="#DejaVuSans-30" x="63.623047"/>
       <use xlink:href="#DejaVuSans-30" x="127.246094"/>
      </g>
     </g>
    </g>
   </g>
   <g id="matplotlib.axis_2">
    <g id="ytick_1">
     <g id="line2d_6">
      <defs>
       <path id="mf5900a0560" d="M 0 0 
L -3.5 0 
" style="stroke: #000000; stroke-width: 0.8"/>
      </defs>
      <g>
       <use xlink:href="#mf5900a0560" x="57.6" y="258.734978" style="stroke: #000000; stroke-width: 0.8"/>
      </g>
     </g>
     <g id="text_6">
      <!-- 0.5 -->
      <g transform="translate(34.696875 262.534197) scale(0.1 -0.1)">
       <defs>
        <path id="DejaVuSans-2e" d="M 684 794 
L 1344 794 
L 1344 0 
L 684 0 
L 684 794 
z
" transform="scale(0.015625)"/>
        <path id="DejaVuSans-35" d="M 691 4666 
L 3169 4666 
L 3169 4134 
L 1269 4134 
L 1269 2991 
Q 1406 3038 1543 3061 
Q 1681 3084 1819 3084 
Q 2600 3084 3056 2656 
Q 3513 2228 3513 1497 
Q 3513 744 3044 326 
Q 2575 -91 1722 -91 
Q 1428 -91 1123 -41 
Q 819 9 494 109 
L 494 744 
Q 775 591 1075 516 
Q 1375 441 1709 441 
Q 2250 441 2565 725 
Q 2881 1009 2881 1497 
Q 2881 1984 2565 2268 
Q 2250 2553 1709 2553 
Q 1456 2553 1204 2497 
Q 953 2441 691 2322 
L 691 4666 
z
" transform="scale(0.015625)"/>
       </defs>
       <use xlink:href="#DejaVuSans-30"/>
       <use xlink:href="#DejaVuSans-2e" x="63.623047"/>
       <use xlink:href="#DejaVuSans-35" x="95.410156"/>
      </g>
     </g>
    </g>
    <g id="ytick_2">
     <g id="line2d_7">
      <g>
       <use xlink:href="#mf5900a0560" x="57.6" y="202.709038" style="stroke: #000000; stroke-width: 0.8"/>
      </g>
     </g>
     <g id="text_7">
      <!-- 0.6 -->
      <g transform="translate(34.696875 206.508256) scale(0.1 -0.1)">
       <use xlink:href="#DejaVuSans-30"/>
       <use xlink:href="#DejaVuSans-2e" x="63.623047"/>
       <use xlink:href="#DejaVuSans-36" x="95.410156"/>
      </g>
     </g>
    </g>
    <g id="ytick_3">
     <g id="line2d_8">
      <g>
       <use xlink:href="#mf5900a0560" x="57.6" y="146.683097" style="stroke: #000000; stroke-width: 0.8"/>
      </g>
     </g>
     <g id="text_8">
      <!-- 0.7 -->
      <g transform="translate(34.696875 150.482316) scale(0.1 -0.1)">
       <defs>
        <path id="DejaVuSans-37" d="M 525 4666 
L 3525 4666 
L 3525 4397 
L 1831 0 
L 1172 0 
L 2766 4134 
L 525 4134 
L 525 4666 
z
" transform="scale(0.015625)"/>
       </defs>
       <use xlink:href="#DejaVuSans-30"/>
       <use xlink:href="#DejaVuSans-2e" x="63.623047"/>
       <use xlink:href="#DejaVuSans-37" x="95.410156"/>
      </g>
     </g>
    </g>
    <g id="ytick_4">
     <g id="line2d_9">
      <g>
       <use xlink:href="#mf5900a0560" x="57.6" y="90.657156" style="stroke: #000000; stroke-width: 0.8"/>
      </g>
     </g>
     <g id="text_9">
      <!-- 0.8 -->
      <g transform="translate(34.696875 94.456375) scale(0.1 -0.1)">
       <use xlink:href="#DejaVuSans-30"/>
       <use xlink:href="#DejaVuSans-2e" x="63.623047"/>
       <use xlink:href="#DejaVuSans-38" x="95.410156"/>
      </g>
     </g>
    </g>
   </g>
   <g id="line2d_10">
    <path d="M 73.832727 134.133281 
L 77.480531 107.240841 
L 81.128335 115.868832 
L 84.776139 101.302075 
L 88.423943 110.210208 
L 92.071747 119.902701 
L 95.719551 97.940528 
L 99.367354 89.648682 
L 103.015158 103.206972 
L 106.662962 88.584213 
L 110.310766 80.460439 
L 113.95857 96.315773 
L 117.606374 94.578982 
L 121.254178 94.018696 
L 124.901982 82.421339 
L 128.549785 80.404404 
L 132.197589 76.594642 
L 135.845393 77.939254 
L 139.493197 77.266965 
L 143.141001 78.387469 
L 146.788805 92.954227 
L 150.436609 69.087156 
L 154.084413 76.594642 
L 157.732217 64.997285 
L 161.38002 81.973124 
L 165.027824 76.650678 
L 168.675628 69.143191 
L 172.323432 73.905385 
L 175.971236 70.207694 
L 179.61904 66.22986 
L 183.266844 61.915848 
L 186.914648 79.003757 
L 190.562451 73.96142 
L 194.210255 64.717142 
L 197.858059 70.992054 
L 201.505863 64.997285 
L 205.153667 72.784881 
L 208.801471 65.669574 
L 212.449275 59.226591 
L 216.097079 64.885215 
L 219.744883 67.350364 
L 223.392686 62.364063 
L 227.04049 68.134724 
L 230.688294 70.319731 
L 234.336098 65.781645 
L 237.983902 62.700208 
L 241.631706 62.588171 
L 245.27951 71.048089 
L 248.927314 65.33343 
L 252.575117 64.54907 
L 256.222921 62.756243 
L 259.870725 61.579703 
L 263.518529 59.562769 
L 267.166333 66.173825 
L 270.814137 62.027885 
L 274.461941 57.938014 
L 278.109745 62.139955 
L 281.757549 62.4761 
L 285.405352 56.873511 
L 289.053156 71.496271 
L 292.70096 62.756243 
L 296.348764 62.420098 
L 299.996568 63.932782 
L 303.644372 67.350364 
L 307.292176 55.977114 
L 310.93998 62.812278 
L 314.587783 57.489799 
L 318.235587 58.610303 
L 321.883391 59.002483 
L 325.531195 60.963416 
L 329.178999 53.96018 
L 332.826803 61.019418 
L 336.474607 58.722374 
L 340.122411 55.753007 
L 343.770215 66.62204 
L 347.418018 61.019418 
L 351.065822 58.834411 
L 354.713626 60.123021 
L 358.36143 56.985582 
L 362.009234 59.61877 
L 365.657038 55.640936 
L 369.304842 59.170589 
L 372.952646 62.08392 
L 376.600449 55.192721 
L 380.248253 57.377762 
L 383.896057 56.425296 
L 387.543861 55.080684 
L 391.191665 59.058518 
L 394.839469 54.74454 
L 398.487273 55.416829 
" clip-path="url(#pd9d280fb31)" style="fill: none; stroke: #1f77b4; stroke-width: 1.5; stroke-linecap: square"/>
   </g>
   <g id="line2d_11">
    <path d="M 73.832727 103.82326 
L 77.480531 88.416107 
L 81.128335 105.840194 
L 84.776139 140.184085 
L 88.423943 98.780923 
L 92.071747 99.67732 
L 95.719551 108.417381 
L 99.367354 81.917122 
L 103.015158 94.747054 
L 106.662962 102.870828 
L 110.310766 80.068259 
L 113.95857 90.37704 
L 117.606374 78.723614 
L 121.254178 96.595916 
L 124.901982 74.241563 
L 128.549785 93.066264 
L 132.197589 82.981591 
L 135.845393 89.704717 
L 139.493197 78.387469 
L 143.141001 83.765951 
L 146.788805 79.115827 
L 150.436609 76.146427 
L 154.084413 83.485841 
L 157.732217 75.081958 
L 161.38002 78.89172 
L 165.027824 67.070221 
L 168.675628 75.698246 
L 172.323432 73.793348 
L 175.971236 70.823981 
L 179.61904 77.827217 
L 183.266844 68.526904 
L 186.914648 67.126257 
L 190.562451 76.202462 
L 194.210255 73.345133 
L 197.858059 65.893682 
L 201.505863 69.087156 
L 205.153667 70.543839 
L 208.801471 64.268927 
L 212.449275 71.216161 
L 216.097079 68.022687 
L 219.744883 64.268927 
L 223.392686 67.294329 
L 227.04049 77.939254 
L 230.688294 71.832449 
L 234.336098 64.997285 
L 237.983902 69.311264 
L 241.631706 65.221393 
L 245.27951 72.840916 
L 248.927314 61.915848 
L 252.575117 61.467633 
L 256.222921 72.112558 
L 259.870725 67.294329 
L 263.518529 58.778409 
L 267.166333 63.988818 
L 270.814137 63.65264 
L 274.461941 57.938014 
L 278.109745 64.268927 
L 281.757549 59.786876 
L 285.405352 63.76471 
L 289.053156 59.282626 
L 292.70096 68.078689 
L 296.348764 59.61877 
L 299.996568 66.397932 
L 303.644372 67.238327 
L 307.292176 61.803811 
L 310.93998 56.481331 
L 314.587783 63.036352 
L 318.235587 58.386229 
L 321.883391 64.436999 
L 325.531195 56.313259 
L 329.178999 60.683273 
L 332.826803 65.389465 
L 336.474607 56.369294 
L 340.122411 60.739308 
L 343.770215 60.571236 
L 347.418018 57.489799 
L 351.065822 69.087156 
L 354.713626 69.479336 
L 358.36143 62.644172 
L 362.009234 56.761474 
L 365.657038 60.907381 
L 369.304842 61.075453 
L 372.952646 61.579703 
L 376.600449 64.493035 
L 380.248253 54.632469 
L 383.896057 58.946481 
L 387.543861 62.924315 
L 391.191665 55.360827 
L 394.839469 57.938014 
L 398.487273 57.938014 
" clip-path="url(#pd9d280fb31)" style="fill: none; stroke: #ff7f0e; stroke-width: 1.5; stroke-linecap: square"/>
   </g>
   <g id="line2d_12">
    <path d="M 73.832727 285.795507 
L 77.480531 288.596801 
L 81.128335 267.643095 
L 84.776139 271.901072 
L 88.423943 267.643095 
L 92.071747 223.27055 
L 95.719551 194.529249 
L 99.367354 232.122649 
L 103.015158 189.262805 
L 106.662962 206.630856 
L 110.310766 295.488 
L 113.95857 268.819652 
L 117.606374 234.475761 
L 121.254178 214.418452 
L 124.901982 169.709746 
L 128.549785 199.067335 
L 132.197589 186.741653 
L 135.845393 198.226973 
L 139.493197 156.711741 
L 143.141001 157.496101 
L 146.788805 170.157961 
L 150.436609 163.21076 
L 154.084413 183.548179 
L 157.732217 167.524739 
L 161.38002 163.99512 
L 165.027824 141.976912 
L 168.675628 147.523499 
L 172.323432 157.776244 
L 175.971236 144.329991 
L 179.61904 134.357388 
L 183.266844 136.878573 
L 186.914648 142.481162 
L 190.562451 133.460992 
L 194.210255 153.68634 
L 197.858059 127.634262 
L 201.505863 134.581496 
L 205.153667 109.313778 
L 208.801471 132.228417 
L 212.449275 118.670127 
L 216.097079 127.410188 
L 219.744883 110.882531 
L 223.392686 131.948274 
L 227.04049 113.571755 
L 230.688294 119.174343 
L 234.336098 130.323519 
L 237.983902 127.690297 
L 241.631706 125.841435 
L 245.27951 115.084472 
L 248.927314 114.860365 
L 252.575117 112.45125 
L 256.222921 109.425848 
L 259.870725 121.247313 
L 263.518529 109.201741 
L 267.166333 119.118342 
L 270.814137 115.476652 
L 274.461941 110.266243 
L 278.109745 111.722926 
L 281.757549 120.126809 
L 285.405352 104.383512 
L 289.053156 110.714459 
L 292.70096 109.201741 
L 296.348764 109.930065 
L 299.996568 101.302075 
L 303.644372 101.806325 
L 307.292176 110.098171 
L 310.93998 102.086434 
L 314.587783 91.889724 
L 318.235587 104.607619 
L 321.883391 99.78939 
L 325.531195 103.0389 
L 329.178999 99.28514 
L 332.826803 100.237606 
L 336.474607 95.867558 
L 340.122411 87.79982 
L 343.770215 99.005031 
L 347.418018 109.089704 
L 351.065822 97.548348 
L 354.713626 89.424575 
L 358.36143 91.385507 
L 362.009234 104.271475 
L 365.657038 98.388743 
L 369.304842 95.363341 
L 372.952646 93.794622 
L 376.600449 100.96593 
L 380.248253 95.979629 
L 383.896057 88.192 
L 387.543861 91.609582 
L 391.191665 97.660385 
L 394.839469 102.478614 
L 398.487273 86.791353 
" clip-path="url(#pd9d280fb31)" style="fill: none; stroke: #2ca02c; stroke-width: 1.5; stroke-linecap: square"/>
   </g>
   <g id="line2d_13">
    <path d="M 73.832727 117.045372 
L 77.480531 118.221911 
L 81.128335 107.857129 
L 84.776139 111.16264 
L 88.423943 125.673362 
L 92.071747 119.958737 
L 95.719551 109.481884 
L 99.367354 86.2311 
L 103.015158 108.081236 
L 106.662962 99.78939 
L 110.310766 83.765951 
L 113.95857 79.67608 
L 117.606374 94.634983 
L 121.254178 75.53014 
L 124.901982 93.066264 
L 128.549785 84.830453 
L 132.197589 78.10736 
L 135.845393 74.577708 
L 139.493197 71.048089 
L 143.141001 80.740549 
L 146.788805 78.611577 
L 150.436609 81.861086 
L 154.084413 76.03439 
L 157.732217 75.306032 
L 161.38002 69.031154 
L 165.027824 68.582939 
L 168.675628 73.905385 
L 172.323432 66.341897 
L 175.971236 74.577708 
L 179.61904 71.216161 
L 183.266844 72.000521 
L 186.914648 67.742544 
L 190.562451 65.83768 
L 194.210255 78.667612 
L 197.858059 64.773177 
L 201.505863 72.168593 
L 205.153667 70.543839 
L 208.801471 66.173825 
L 212.449275 68.694976 
L 216.097079 72.504738 
L 219.744883 65.669574 
L 223.392686 65.221393 
L 227.04049 67.238327 
L 230.688294 63.708675 
L 234.336098 70.375766 
L 237.983902 69.199227 
L 241.631706 71.88845 
L 245.27951 58.778409 
L 248.927314 58.442231 
L 252.575117 71.776413 
L 256.222921 59.002483 
L 259.870725 72.224629 
L 263.518529 63.204458 
L 267.166333 60.291093 
L 270.814137 74.129493 
L 274.461941 63.036352 
L 278.109745 65.053287 
L 281.757549 61.915848 
L 285.405352 59.842878 
L 289.053156 62.420098 
L 292.70096 57.433764 
L 296.348764 59.394696 
L 299.996568 60.739308 
L 303.644372 60.851345 
L 307.292176 62.756243 
L 310.93998 63.484567 
L 314.587783 62.756243 
L 318.235587 60.683273 
L 321.883391 59.338661 
L 325.531195 58.386229 
L 329.178999 57.489799 
L 332.826803 62.251993 
L 336.474607 58.834411 
L 340.122411 58.554301 
L 343.770215 62.756243 
L 347.418018 64.436999 
L 351.065822 58.330194 
L 354.713626 63.708675 
L 358.36143 58.106086 
L 362.009234 59.058518 
L 365.657038 53.568 
L 369.304842 61.131488 
L 372.952646 59.170589 
L 376.600449 58.498266 
L 380.248253 55.809009 
L 383.896057 57.769942 
L 387.543861 58.050051 
L 391.191665 57.041584 
L 394.839469 56.593369 
L 398.487273 59.674806 
" clip-path="url(#pd9d280fb31)" style="fill: none; stroke: #d62728; stroke-width: 1.5; stroke-linecap: square"/>
   </g>
   <g id="patch_3">
    <path d="M 57.6 307.584 
L 57.6 41.472 
" style="fill: none; stroke: #000000; stroke-width: 0.8; stroke-linejoin: miter; stroke-linecap: square"/>
   </g>
   <g id="patch_4">
    <path d="M 414.72 307.584 
L 414.72 41.472 
" style="fill: none; stroke: #000000; stroke-width: 0.8; stroke-linejoin: miter; stroke-linecap: square"/>
   </g>
   <g id="patch_5">
    <path d="M 57.6 307.584 
L 414.72 307.584 
" style="fill: none; stroke: #000000; stroke-width: 0.8; stroke-linejoin: miter; stroke-linecap: square"/>
   </g>
   <g id="patch_6">
    <path d="M 57.6 41.472 
L 414.72 41.472 
" style="fill: none; stroke: #000000; stroke-width: 0.8; stroke-linejoin: miter; stroke-linecap: square"/>
   </g>
   <g id="text_10">
    <!-- 100 Iterations each -->
    <g transform="translate(177.8475 35.472) scale(0.12 -0.12)">
     <defs>
      <path id="DejaVuSans-20" transform="scale(0.015625)"/>
      <path id="DejaVuSans-49" d="M 628 4666 
L 1259 4666 
L 1259 0 
L 628 0 
L 628 4666 
z
" transform="scale(0.015625)"/>
      <path id="DejaVuSans-74" d="M 1172 4494 
L 1172 3500 
L 2356 3500 
L 2356 3053 
L 1172 3053 
L 1172 1153 
Q 1172 725 1289 603 
Q 1406 481 1766 481 
L 2356 481 
L 2356 0 
L 1766 0 
Q 1100 0 847 248 
Q 594 497 594 1153 
L 594 3053 
L 172 3053 
L 172 3500 
L 594 3500 
L 594 4494 
L 1172 4494 
z
" transform="scale(0.015625)"/>
      <path id="DejaVuSans-65" d="M 3597 1894 
L 3597 1613 
L 953 1613 
Q 991 1019 1311 708 
Q 1631 397 2203 397 
Q 2534 397 2845 478 
Q 3156 559 3463 722 
L 3463 178 
Q 3153 47 2828 -22 
Q 2503 -91 2169 -91 
Q 1331 -91 842 396 
Q 353 884 353 1716 
Q 353 2575 817 3079 
Q 1281 3584 2069 3584 
Q 2775 3584 3186 3129 
Q 3597 2675 3597 1894 
z
M 3022 2063 
Q 3016 2534 2758 2815 
Q 2500 3097 2075 3097 
Q 1594 3097 1305 2825 
Q 1016 2553 972 2059 
L 3022 2063 
z
" transform="scale(0.015625)"/>
      <path id="DejaVuSans-72" d="M 2631 2963 
Q 2534 3019 2420 3045 
Q 2306 3072 2169 3072 
Q 1681 3072 1420 2755 
Q 1159 2438 1159 1844 
L 1159 0 
L 581 0 
L 581 3500 
L 1159 3500 
L 1159 2956 
Q 1341 3275 1631 3429 
Q 1922 3584 2338 3584 
Q 2397 3584 2469 3576 
Q 2541 3569 2628 3553 
L 2631 2963 
z
" transform="scale(0.015625)"/>
      <path id="DejaVuSans-61" d="M 2194 1759 
Q 1497 1759 1228 1600 
Q 959 1441 959 1056 
Q 959 750 1161 570 
Q 1363 391 1709 391 
Q 2188 391 2477 730 
Q 2766 1069 2766 1631 
L 2766 1759 
L 2194 1759 
z
M 3341 1997 
L 3341 0 
L 2766 0 
L 2766 531 
Q 2569 213 2275 61 
Q 1981 -91 1556 -91 
Q 1019 -91 701 211 
Q 384 513 384 1019 
Q 384 1609 779 1909 
Q 1175 2209 1959 2209 
L 2766 2209 
L 2766 2266 
Q 2766 2663 2505 2880 
Q 2244 3097 1772 3097 
Q 1472 3097 1187 3025 
Q 903 2953 641 2809 
L 641 3341 
Q 956 3463 1253 3523 
Q 1550 3584 1831 3584 
Q 2591 3584 2966 3190 
Q 3341 2797 3341 1997 
z
" transform="scale(0.015625)"/>
      <path id="DejaVuSans-69" d="M 603 3500 
L 1178 3500 
L 1178 0 
L 603 0 
L 603 3500 
z
M 603 4863 
L 1178 4863 
L 1178 4134 
L 603 4134 
L 603 4863 
z
" transform="scale(0.015625)"/>
      <path id="DejaVuSans-6f" d="M 1959 3097 
Q 1497 3097 1228 2736 
Q 959 2375 959 1747 
Q 959 1119 1226 758 
Q 1494 397 1959 397 
Q 2419 397 2687 759 
Q 2956 1122 2956 1747 
Q 2956 2369 2687 2733 
Q 2419 3097 1959 3097 
z
M 1959 3584 
Q 2709 3584 3137 3096 
Q 3566 2609 3566 1747 
Q 3566 888 3137 398 
Q 2709 -91 1959 -91 
Q 1206 -91 779 398 
Q 353 888 353 1747 
Q 353 2609 779 3096 
Q 1206 3584 1959 3584 
z
" transform="scale(0.015625)"/>
      <path id="DejaVuSans-6e" d="M 3513 2113 
L 3513 0 
L 2938 0 
L 2938 2094 
Q 2938 2591 2744 2837 
Q 2550 3084 2163 3084 
Q 1697 3084 1428 2787 
Q 1159 2491 1159 1978 
L 1159 0 
L 581 0 
L 581 3500 
L 1159 3500 
L 1159 2956 
Q 1366 3272 1645 3428 
Q 1925 3584 2291 3584 
Q 2894 3584 3203 3211 
Q 3513 2838 3513 2113 
z
" transform="scale(0.015625)"/>
      <path id="DejaVuSans-73" d="M 2834 3397 
L 2834 2853 
Q 2591 2978 2328 3040 
Q 2066 3103 1784 3103 
Q 1356 3103 1142 2972 
Q 928 2841 928 2578 
Q 928 2378 1081 2264 
Q 1234 2150 1697 2047 
L 1894 2003 
Q 2506 1872 2764 1633 
Q 3022 1394 3022 966 
Q 3022 478 2636 193 
Q 2250 -91 1575 -91 
Q 1294 -91 989 -36 
Q 684 19 347 128 
L 347 722 
Q 666 556 975 473 
Q 1284 391 1588 391 
Q 1994 391 2212 530 
Q 2431 669 2431 922 
Q 2431 1156 2273 1281 
Q 2116 1406 1581 1522 
L 1381 1569 
Q 847 1681 609 1914 
Q 372 2147 372 2553 
Q 372 3047 722 3315 
Q 1072 3584 1716 3584 
Q 2034 3584 2315 3537 
Q 2597 3491 2834 3397 
z
" transform="scale(0.015625)"/>
      <path id="DejaVuSans-63" d="M 3122 3366 
L 3122 2828 
Q 2878 2963 2633 3030 
Q 2388 3097 2138 3097 
Q 1578 3097 1268 2742 
Q 959 2388 959 1747 
Q 959 1106 1268 751 
Q 1578 397 2138 397 
Q 2388 397 2633 464 
Q 2878 531 3122 666 
L 3122 134 
Q 2881 22 2623 -34 
Q 2366 -91 2075 -91 
Q 1284 -91 818 406 
Q 353 903 353 1747 
Q 353 2603 823 3093 
Q 1294 3584 2113 3584 
Q 2378 3584 2631 3529 
Q 2884 3475 3122 3366 
z
" transform="scale(0.015625)"/>
      <path id="DejaVuSans-68" d="M 3513 2113 
L 3513 0 
L 2938 0 
L 2938 2094 
Q 2938 2591 2744 2837 
Q 2550 3084 2163 3084 
Q 1697 3084 1428 2787 
Q 1159 2491 1159 1978 
L 1159 0 
L 581 0 
L 581 4863 
L 1159 4863 
L 1159 2956 
Q 1366 3272 1645 3428 
Q 1925 3584 2291 3584 
Q 2894 3584 3203 3211 
Q 3513 2838 3513 2113 
z
" transform="scale(0.015625)"/>
     </defs>
     <use xlink:href="#DejaVuSans-31"/>
     <use xlink:href="#DejaVuSans-30" x="63.623047"/>
     <use xlink:href="#DejaVuSans-30" x="127.246094"/>
     <use xlink:href="#DejaVuSans-20" x="190.869141"/>
     <use xlink:href="#DejaVuSans-49" x="222.65625"/>
     <use xlink:href="#DejaVuSans-74" x="252.148438"/>
     <use xlink:href="#DejaVuSans-65" x="291.357422"/>
     <use xlink:href="#DejaVuSans-72" x="352.880859"/>
     <use xlink:href="#DejaVuSans-61" x="393.994141"/>
     <use xlink:href="#DejaVuSans-74" x="455.273438"/>
     <use xlink:href="#DejaVuSans-69" x="494.482422"/>
     <use xlink:href="#DejaVuSans-6f" x="522.265625"/>
     <use xlink:href="#DejaVuSans-6e" x="583.447266"/>
     <use xlink:href="#DejaVuSans-73" x="646.826172"/>
     <use xlink:href="#DejaVuSans-20" x="698.925781"/>
     <use xlink:href="#DejaVuSans-65" x="730.712891"/>
     <use xlink:href="#DejaVuSans-61" x="792.236328"/>
     <use xlink:href="#DejaVuSans-63" x="853.515625"/>
     <use xlink:href="#DejaVuSans-68" x="908.496094"/>
    </g>
   </g>
   <g id="legend_1">
    <g id="patch_7">
     <path d="M 232.880937 302.584 
L 407.72 302.584 
Q 409.72 302.584 409.72 300.584 
L 409.72 242.037125 
Q 409.72 240.037125 407.72 240.037125 
L 232.880937 240.037125 
Q 230.880937 240.037125 230.880937 242.037125 
L 230.880937 300.584 
Q 230.880937 302.584 232.880937 302.584 
z
" style="fill: #ffffff; opacity: 0.8; stroke: #cccccc; stroke-linejoin: miter"/>
    </g>
    <g id="line2d_14">
     <path d="M 234.880937 248.135562 
L 244.880937 248.135562 
L 254.880937 248.135562 
" style="fill: none; stroke: #1f77b4; stroke-width: 1.5; stroke-linecap: square"/>
    </g>
    <g id="text_11">
     <!-- acc init -->
     <g transform="translate(262.880937 251.635562) scale(0.1 -0.1)">
      <use xlink:href="#DejaVuSans-61"/>
      <use xlink:href="#DejaVuSans-63" x="61.279297"/>
      <use xlink:href="#DejaVuSans-63" x="116.259766"/>
      <use xlink:href="#DejaVuSans-20" x="171.240234"/>
      <use xlink:href="#DejaVuSans-69" x="203.027344"/>
      <use xlink:href="#DejaVuSans-6e" x="230.810547"/>
      <use xlink:href="#DejaVuSans-69" x="294.189453"/>
      <use xlink:href="#DejaVuSans-74" x="321.972656"/>
     </g>
    </g>
    <g id="line2d_15">
     <path d="M 234.880937 262.813688 
L 244.880937 262.813688 
L 254.880937 262.813688 
" style="fill: none; stroke: #ff7f0e; stroke-width: 1.5; stroke-linecap: square"/>
    </g>
    <g id="text_12">
     <!-- acc init_bias_0 -->
     <g transform="translate(262.880937 266.313688) scale(0.1 -0.1)">
      <defs>
       <path id="DejaVuSans-5f" d="M 3263 -1063 
L 3263 -1509 
L -63 -1509 
L -63 -1063 
L 3263 -1063 
z
" transform="scale(0.015625)"/>
       <path id="DejaVuSans-62" d="M 3116 1747 
Q 3116 2381 2855 2742 
Q 2594 3103 2138 3103 
Q 1681 3103 1420 2742 
Q 1159 2381 1159 1747 
Q 1159 1113 1420 752 
Q 1681 391 2138 391 
Q 2594 391 2855 752 
Q 3116 1113 3116 1747 
z
M 1159 2969 
Q 1341 3281 1617 3432 
Q 1894 3584 2278 3584 
Q 2916 3584 3314 3078 
Q 3713 2572 3713 1747 
Q 3713 922 3314 415 
Q 2916 -91 2278 -91 
Q 1894 -91 1617 61 
Q 1341 213 1159 525 
L 1159 0 
L 581 0 
L 581 4863 
L 1159 4863 
L 1159 2969 
z
" transform="scale(0.015625)"/>
      </defs>
      <use xlink:href="#DejaVuSans-61"/>
      <use xlink:href="#DejaVuSans-63" x="61.279297"/>
      <use xlink:href="#DejaVuSans-63" x="116.259766"/>
      <use xlink:href="#DejaVuSans-20" x="171.240234"/>
      <use xlink:href="#DejaVuSans-69" x="203.027344"/>
      <use xlink:href="#DejaVuSans-6e" x="230.810547"/>
      <use xlink:href="#DejaVuSans-69" x="294.189453"/>
      <use xlink:href="#DejaVuSans-74" x="321.972656"/>
      <use xlink:href="#DejaVuSans-5f" x="361.181641"/>
      <use xlink:href="#DejaVuSans-62" x="411.181641"/>
      <use xlink:href="#DejaVuSans-69" x="474.658203"/>
      <use xlink:href="#DejaVuSans-61" x="502.441406"/>
      <use xlink:href="#DejaVuSans-73" x="563.720703"/>
      <use xlink:href="#DejaVuSans-5f" x="615.820312"/>
      <use xlink:href="#DejaVuSans-30" x="665.820312"/>
     </g>
    </g>
    <g id="line2d_16">
     <path d="M 234.880937 277.769937 
L 244.880937 277.769937 
L 254.880937 277.769937 
" style="fill: none; stroke: #2ca02c; stroke-width: 1.5; stroke-linecap: square"/>
    </g>
    <g id="text_13">
     <!-- acc init_big_values -->
     <g transform="translate(262.880937 281.269937) scale(0.1 -0.1)">
      <defs>
       <path id="DejaVuSans-67" d="M 2906 1791 
Q 2906 2416 2648 2759 
Q 2391 3103 1925 3103 
Q 1463 3103 1205 2759 
Q 947 2416 947 1791 
Q 947 1169 1205 825 
Q 1463 481 1925 481 
Q 2391 481 2648 825 
Q 2906 1169 2906 1791 
z
M 3481 434 
Q 3481 -459 3084 -895 
Q 2688 -1331 1869 -1331 
Q 1566 -1331 1297 -1286 
Q 1028 -1241 775 -1147 
L 775 -588 
Q 1028 -725 1275 -790 
Q 1522 -856 1778 -856 
Q 2344 -856 2625 -561 
Q 2906 -266 2906 331 
L 2906 616 
Q 2728 306 2450 153 
Q 2172 0 1784 0 
Q 1141 0 747 490 
Q 353 981 353 1791 
Q 353 2603 747 3093 
Q 1141 3584 1784 3584 
Q 2172 3584 2450 3431 
Q 2728 3278 2906 2969 
L 2906 3500 
L 3481 3500 
L 3481 434 
z
" transform="scale(0.015625)"/>
       <path id="DejaVuSans-76" d="M 191 3500 
L 800 3500 
L 1894 563 
L 2988 3500 
L 3597 3500 
L 2284 0 
L 1503 0 
L 191 3500 
z
" transform="scale(0.015625)"/>
       <path id="DejaVuSans-6c" d="M 603 4863 
L 1178 4863 
L 1178 0 
L 603 0 
L 603 4863 
z
" transform="scale(0.015625)"/>
       <path id="DejaVuSans-75" d="M 544 1381 
L 544 3500 
L 1119 3500 
L 1119 1403 
Q 1119 906 1312 657 
Q 1506 409 1894 409 
Q 2359 409 2629 706 
Q 2900 1003 2900 1516 
L 2900 3500 
L 3475 3500 
L 3475 0 
L 2900 0 
L 2900 538 
Q 2691 219 2414 64 
Q 2138 -91 1772 -91 
Q 1169 -91 856 284 
Q 544 659 544 1381 
z
M 1991 3584 
L 1991 3584 
z
" transform="scale(0.015625)"/>
      </defs>
      <use xlink:href="#DejaVuSans-61"/>
      <use xlink:href="#DejaVuSans-63" x="61.279297"/>
      <use xlink:href="#DejaVuSans-63" x="116.259766"/>
      <use xlink:href="#DejaVuSans-20" x="171.240234"/>
      <use xlink:href="#DejaVuSans-69" x="203.027344"/>
      <use xlink:href="#DejaVuSans-6e" x="230.810547"/>
      <use xlink:href="#DejaVuSans-69" x="294.189453"/>
      <use xlink:href="#DejaVuSans-74" x="321.972656"/>
      <use xlink:href="#DejaVuSans-5f" x="361.181641"/>
      <use xlink:href="#DejaVuSans-62" x="411.181641"/>
      <use xlink:href="#DejaVuSans-69" x="474.658203"/>
      <use xlink:href="#DejaVuSans-67" x="502.441406"/>
      <use xlink:href="#DejaVuSans-5f" x="565.917969"/>
      <use xlink:href="#DejaVuSans-76" x="615.917969"/>
      <use xlink:href="#DejaVuSans-61" x="675.097656"/>
      <use xlink:href="#DejaVuSans-6c" x="736.376953"/>
      <use xlink:href="#DejaVuSans-75" x="764.160156"/>
      <use xlink:href="#DejaVuSans-65" x="827.539062"/>
      <use xlink:href="#DejaVuSans-73" x="889.0625"/>
     </g>
    </g>
    <g id="line2d_17">
     <path d="M 234.880937 292.726187 
L 244.880937 292.726187 
L 254.880937 292.726187 
" style="fill: none; stroke: #d62728; stroke-width: 1.5; stroke-linecap: square"/>
    </g>
    <g id="text_14">
     <!-- acc init_negative_biases_too -->
     <g transform="translate(262.880937 296.226187) scale(0.1 -0.1)">
      <use xlink:href="#DejaVuSans-61"/>
      <use xlink:href="#DejaVuSans-63" x="61.279297"/>
      <use xlink:href="#DejaVuSans-63" x="116.259766"/>
      <use xlink:href="#DejaVuSans-20" x="171.240234"/>
      <use xlink:href="#DejaVuSans-69" x="203.027344"/>
      <use xlink:href="#DejaVuSans-6e" x="230.810547"/>
      <use xlink:href="#DejaVuSans-69" x="294.189453"/>
      <use xlink:href="#DejaVuSans-74" x="321.972656"/>
      <use xlink:href="#DejaVuSans-5f" x="361.181641"/>
      <use xlink:href="#DejaVuSans-6e" x="411.181641"/>
      <use xlink:href="#DejaVuSans-65" x="474.560547"/>
      <use xlink:href="#DejaVuSans-67" x="536.083984"/>
      <use xlink:href="#DejaVuSans-61" x="599.560547"/>
      <use xlink:href="#DejaVuSans-74" x="660.839844"/>
      <use xlink:href="#DejaVuSans-69" x="700.048828"/>
      <use xlink:href="#DejaVuSans-76" x="727.832031"/>
      <use xlink:href="#DejaVuSans-65" x="787.011719"/>
      <use xlink:href="#DejaVuSans-5f" x="848.535156"/>
      <use xlink:href="#DejaVuSans-62" x="898.535156"/>
      <use xlink:href="#DejaVuSans-69" x="962.011719"/>
      <use xlink:href="#DejaVuSans-61" x="989.794922"/>
      <use xlink:href="#DejaVuSans-73" x="1051.074219"/>
      <use xlink:href="#DejaVuSans-65" x="1103.173828"/>
      <use xlink:href="#DejaVuSans-73" x="1164.697266"/>
      <use xlink:href="#DejaVuSans-5f" x="1216.796875"/>
      <use xlink:href="#DejaVuSans-74" x="1266.796875"/>
      <use xlink:href="#DejaVuSans-6f" x="1306.005859"/>
      <use xlink:href="#DejaVuSans-6f" x="1367.1875"/>
     </g>
    </g>
   </g>
  </g>
 </g>
 <defs>
  <clipPath id="pd9d280fb31">
   <rect x="57.6" y="41.472" width="357.12" height="266.112"/>
  </clipPath>
 </defs>
</svg>
