<?xml version="1.0" encoding="utf-8" standalone="no"?>
<!DOCTYPE svg PUBLIC "-//W3C//DTD SVG 1.1//EN"
  "http://www.w3.org/Graphics/SVG/1.1/DTD/svg11.dtd">
<svg xmlns:xlink="http://www.w3.org/1999/xlink" width="460.8pt" height="345.6pt" viewBox="0 0 460.8 345.6" xmlns="http://www.w3.org/2000/svg" version="1.1">
 <metadata>
  <rdf:RDF xmlns:dc="http://purl.org/dc/elements/1.1/" xmlns:cc="http://creativecommons.org/ns#" xmlns:rdf="http://www.w3.org/1999/02/22-rdf-syntax-ns#">
   <cc:Work>
    <dc:type rdf:resource="http://purl.org/dc/dcmitype/StillImage"/>
    <dc:date>2023-10-10T23:33:02.121628</dc:date>
    <dc:format>image/svg+xml</dc:format>
    <dc:creator>
     <cc:Agent>
      <dc:title>Matplotlib v3.6.2, https://matplotlib.org/</dc:title>
     </cc:Agent>
    </dc:creator>
   </cc:Work>
  </rdf:RDF>
 </metadata>
 <defs>
  <style type="text/css">*{stroke-linejoin: round; stroke-linecap: butt}</style>
 </defs>
 <g id="figure_1">
  <g id="patch_1">
   <path d="M 0 345.6 
L 460.8 345.6 
L 460.8 0 
L 0 0 
z
" style="fill: #ffffff"/>
  </g>
  <g id="axes_1">
   <g id="patch_2">
    <path d="M 57.6 307.584 
L 414.72 307.584 
L 414.72 41.472 
L 57.6 41.472 
z
" style="fill: #ffffff"/>
   </g>
   <g id="matplotlib.axis_1">
    <g id="xtick_1">
     <g id="line2d_1">
      <defs>
       <path id="mb00bd2c7e6" d="M 0 0 
L 0 3.5 
" style="stroke: #000000; stroke-width: 0.8"/>
      </defs>
      <g>
       <use xlink:href="#mb00bd2c7e6" x="110.310766" y="307.584" style="stroke: #000000; stroke-width: 0.8"/>
      </g>
     </g>
     <g id="text_1">
      <!-- 20 -->
      <g transform="translate(103.948266 322.182437) scale(0.1 -0.1)">
       <defs>
        <path id="DejaVuSans-32" d="M 1228 531 
L 3431 531 
L 3431 0 
L 469 0 
L 469 531 
Q 828 903 1448 1529 
Q 2069 2156 2228 2338 
Q 2531 2678 2651 2914 
Q 2772 3150 2772 3378 
Q 2772 3750 2511 3984 
Q 2250 4219 1831 4219 
Q 1534 4219 1204 4116 
Q 875 4013 500 3803 
L 500 4441 
Q 881 4594 1212 4672 
Q 1544 4750 1819 4750 
Q 2544 4750 2975 4387 
Q 3406 4025 3406 3419 
Q 3406 3131 3298 2873 
Q 3191 2616 2906 2266 
Q 2828 2175 2409 1742 
Q 1991 1309 1228 531 
z
" transform="scale(0.015625)"/>
        <path id="DejaVuSans-30" d="M 2034 4250 
Q 1547 4250 1301 3770 
Q 1056 3291 1056 2328 
Q 1056 1369 1301 889 
Q 1547 409 2034 409 
Q 2525 409 2770 889 
Q 3016 1369 3016 2328 
Q 3016 3291 2770 3770 
Q 2525 4250 2034 4250 
z
M 2034 4750 
Q 2819 4750 3233 4129 
Q 3647 3509 3647 2328 
Q 3647 1150 3233 529 
Q 2819 -91 2034 -91 
Q 1250 -91 836 529 
Q 422 1150 422 2328 
Q 422 3509 836 4129 
Q 1250 4750 2034 4750 
z
" transform="scale(0.015625)"/>
       </defs>
       <use xlink:href="#DejaVuSans-32"/>
       <use xlink:href="#DejaVuSans-30" x="63.623047"/>
      </g>
     </g>
    </g>
    <g id="xtick_2">
     <g id="line2d_2">
      <g>
       <use xlink:href="#mb00bd2c7e6" x="183.266844" y="307.584" style="stroke: #000000; stroke-width: 0.8"/>
      </g>
     </g>
     <g id="text_2">
      <!-- 40 -->
      <g transform="translate(176.904344 322.182437) scale(0.1 -0.1)">
       <defs>
        <path id="DejaVuSans-34" d="M 2419 4116 
L 825 1625 
L 2419 1625 
L 2419 4116 
z
M 2253 4666 
L 3047 4666 
L 3047 1625 
L 3713 1625 
L 3713 1100 
L 3047 1100 
L 3047 0 
L 2419 0 
L 2419 1100 
L 313 1100 
L 313 1709 
L 2253 4666 
z
" transform="scale(0.015625)"/>
       </defs>
       <use xlink:href="#DejaVuSans-34"/>
       <use xlink:href="#DejaVuSans-30" x="63.623047"/>
      </g>
     </g>
    </g>
    <g id="xtick_3">
     <g id="line2d_3">
      <g>
       <use xlink:href="#mb00bd2c7e6" x="256.222921" y="307.584" style="stroke: #000000; stroke-width: 0.8"/>
      </g>
     </g>
     <g id="text_3">
      <!-- 60 -->
      <g transform="translate(249.860421 322.182437) scale(0.1 -0.1)">
       <defs>
        <path id="DejaVuSans-36" d="M 2113 2584 
Q 1688 2584 1439 2293 
Q 1191 2003 1191 1497 
Q 1191 994 1439 701 
Q 1688 409 2113 409 
Q 2538 409 2786 701 
Q 3034 994 3034 1497 
Q 3034 2003 2786 2293 
Q 2538 2584 2113 2584 
z
M 3366 4563 
L 3366 3988 
Q 3128 4100 2886 4159 
Q 2644 4219 2406 4219 
Q 1781 4219 1451 3797 
Q 1122 3375 1075 2522 
Q 1259 2794 1537 2939 
Q 1816 3084 2150 3084 
Q 2853 3084 3261 2657 
Q 3669 2231 3669 1497 
Q 3669 778 3244 343 
Q 2819 -91 2113 -91 
Q 1303 -91 875 529 
Q 447 1150 447 2328 
Q 447 3434 972 4092 
Q 1497 4750 2381 4750 
Q 2619 4750 2861 4703 
Q 3103 4656 3366 4563 
z
" transform="scale(0.015625)"/>
       </defs>
       <use xlink:href="#DejaVuSans-36"/>
       <use xlink:href="#DejaVuSans-30" x="63.623047"/>
      </g>
     </g>
    </g>
    <g id="xtick_4">
     <g id="line2d_4">
      <g>
       <use xlink:href="#mb00bd2c7e6" x="329.178999" y="307.584" style="stroke: #000000; stroke-width: 0.8"/>
      </g>
     </g>
     <g id="text_4">
      <!-- 80 -->
      <g transform="translate(322.816499 322.182437) scale(0.1 -0.1)">
       <defs>
        <path id="DejaVuSans-38" d="M 2034 2216 
Q 1584 2216 1326 1975 
Q 1069 1734 1069 1313 
Q 1069 891 1326 650 
Q 1584 409 2034 409 
Q 2484 409 2743 651 
Q 3003 894 3003 1313 
Q 3003 1734 2745 1975 
Q 2488 2216 2034 2216 
z
M 1403 2484 
Q 997 2584 770 2862 
Q 544 3141 544 3541 
Q 544 4100 942 4425 
Q 1341 4750 2034 4750 
Q 2731 4750 3128 4425 
Q 3525 4100 3525 3541 
Q 3525 3141 3298 2862 
Q 3072 2584 2669 2484 
Q 3125 2378 3379 2068 
Q 3634 1759 3634 1313 
Q 3634 634 3220 271 
Q 2806 -91 2034 -91 
Q 1263 -91 848 271 
Q 434 634 434 1313 
Q 434 1759 690 2068 
Q 947 2378 1403 2484 
z
M 1172 3481 
Q 1172 3119 1398 2916 
Q 1625 2713 2034 2713 
Q 2441 2713 2670 2916 
Q 2900 3119 2900 3481 
Q 2900 3844 2670 4047 
Q 2441 4250 2034 4250 
Q 1625 4250 1398 4047 
Q 1172 3844 1172 3481 
z
" transform="scale(0.015625)"/>
       </defs>
       <use xlink:href="#DejaVuSans-38"/>
       <use xlink:href="#DejaVuSans-30" x="63.623047"/>
      </g>
     </g>
    </g>
    <g id="xtick_5">
     <g id="line2d_5">
      <g>
       <use xlink:href="#mb00bd2c7e6" x="402.135077" y="307.584" style="stroke: #000000; stroke-width: 0.8"/>
      </g>
     </g>
     <g id="text_5">
      <!-- 100 -->
      <g transform="translate(392.591327 322.182437) scale(0.1 -0.1)">
       <defs>
        <path id="DejaVuSans-31" d="M 794 531 
L 1825 531 
L 1825 4091 
L 703 3866 
L 703 4441 
L 1819 4666 
L 2450 4666 
L 2450 531 
L 3481 531 
L 3481 0 
L 794 0 
L 794 531 
z
" transform="scale(0.015625)"/>
       </defs>
       <use xlink:href="#DejaVuSans-31"/>
       <use xlink:href="#DejaVuSans-30" x="63.623047"/>
       <use xlink:href="#DejaVuSans-30" x="127.246094"/>
      </g>
     </g>
    </g>
   </g>
   <g id="matplotlib.axis_2">
    <g id="ytick_1">
     <g id="line2d_6">
      <defs>
       <path id="m3b6a8cadff" d="M 0 0 
L -3.5 0 
" style="stroke: #000000; stroke-width: 0.8"/>
      </defs>
      <g>
       <use xlink:href="#m3b6a8cadff" x="57.6" y="280.260454" style="stroke: #000000; stroke-width: 0.8"/>
      </g>
     </g>
     <g id="text_6">
      <!-- 0.2 -->
      <g transform="translate(34.696875 284.059673) scale(0.1 -0.1)">
       <defs>
        <path id="DejaVuSans-2e" d="M 684 794 
L 1344 794 
L 1344 0 
L 684 0 
L 684 794 
z
" transform="scale(0.015625)"/>
       </defs>
       <use xlink:href="#DejaVuSans-30"/>
       <use xlink:href="#DejaVuSans-2e" x="63.623047"/>
       <use xlink:href="#DejaVuSans-32" x="95.410156"/>
      </g>
     </g>
    </g>
    <g id="ytick_2">
     <g id="line2d_7">
      <g>
       <use xlink:href="#m3b6a8cadff" x="57.6" y="221.876884" style="stroke: #000000; stroke-width: 0.8"/>
      </g>
     </g>
     <g id="text_7">
      <!-- 0.4 -->
      <g transform="translate(34.696875 225.676103) scale(0.1 -0.1)">
       <use xlink:href="#DejaVuSans-30"/>
       <use xlink:href="#DejaVuSans-2e" x="63.623047"/>
       <use xlink:href="#DejaVuSans-34" x="95.410156"/>
      </g>
     </g>
    </g>
    <g id="ytick_3">
     <g id="line2d_8">
      <g>
       <use xlink:href="#m3b6a8cadff" x="57.6" y="163.493315" style="stroke: #000000; stroke-width: 0.8"/>
      </g>
     </g>
     <g id="text_8">
      <!-- 0.6 -->
      <g transform="translate(34.696875 167.292533) scale(0.1 -0.1)">
       <use xlink:href="#DejaVuSans-30"/>
       <use xlink:href="#DejaVuSans-2e" x="63.623047"/>
       <use xlink:href="#DejaVuSans-36" x="95.410156"/>
      </g>
     </g>
    </g>
    <g id="ytick_4">
     <g id="line2d_9">
      <g>
       <use xlink:href="#m3b6a8cadff" x="57.6" y="105.109745" style="stroke: #000000; stroke-width: 0.8"/>
      </g>
     </g>
     <g id="text_9">
      <!-- 0.8 -->
      <g transform="translate(34.696875 108.908964) scale(0.1 -0.1)">
       <use xlink:href="#DejaVuSans-30"/>
       <use xlink:href="#DejaVuSans-2e" x="63.623047"/>
       <use xlink:href="#DejaVuSans-38" x="95.410156"/>
      </g>
     </g>
    </g>
    <g id="ytick_5">
     <g id="line2d_10">
      <g>
       <use xlink:href="#m3b6a8cadff" x="57.6" y="46.726175" style="stroke: #000000; stroke-width: 0.8"/>
      </g>
     </g>
     <g id="text_10">
      <!-- 1.0 -->
      <g transform="translate(34.696875 50.525394) scale(0.1 -0.1)">
       <use xlink:href="#DejaVuSans-31"/>
       <use xlink:href="#DejaVuSans-2e" x="63.623047"/>
       <use xlink:href="#DejaVuSans-30" x="95.410156"/>
      </g>
     </g>
    </g>
   </g>
   <g id="line2d_11">
    <path d="M 73.832727 213.3843 
L 77.480531 290.896747 
L 81.128335 268.314521 
L 84.776139 278.511687 
L 88.423943 254.836614 
L 92.071747 243.19137 
L 95.719551 188.493713 
L 99.367354 221.237567 
L 103.015158 233.508529 
L 106.662962 243.90319 
L 110.310766 290.196089 
L 113.95857 245.002901 
L 117.606374 258.030478 
L 121.254178 239.476734 
L 124.901982 246.391219 
L 128.549785 238.055921 
L 132.197589 272.825513 
L 135.845393 277.721521 
L 139.493197 249.207772 
L 143.141001 258.578968 
L 146.788805 271.731771 
L 150.436609 236.768373 
L 154.084413 277.0889 
L 157.732217 267.437548 
L 161.38002 278.585209 
L 165.027824 244.100867 
L 168.675628 280.918673 
L 172.323432 216.257845 
L 175.971236 270.629006 
L 179.61904 260.216615 
L 183.266844 231.694031 
L 186.914648 266.874377 
L 190.562451 199.388153 
L 194.210255 227.649559 
L 197.858059 294.768041 
L 201.505863 246.530834 
L 205.153667 275.243526 
L 208.801471 274.048213 
L 212.449275 282.819303 
L 216.097079 235.465034 
L 219.744883 228.122638 
L 223.392686 260.124466 
L 227.04049 291.540291 
L 230.688294 231.919035 
L 234.336098 269.211817 
L 237.983902 279.555554 
L 241.631706 288.751213 
L 245.27951 206.870468 
L 248.927314 272.867612 
L 252.575117 240.373608 
L 256.222921 248.907715 
L 259.870725 264.310224 
L 263.518529 263.321393 
L 267.166333 250.646785 
L 270.814137 235.519869 
L 274.461941 265.414546 
L 278.109745 247.188707 
L 281.757549 259.707092 
L 285.405352 258.651576 
L 289.053156 278.711518 
L 292.70096 288.811155 
L 296.348764 258.819153 
L 299.996568 252.547645 
L 303.644372 235.334928 
L 307.292176 262.343001 
L 310.93998 286.410576 
L 314.587783 279.697909 
L 318.235587 257.429329 
L 321.883391 259.774403 
L 325.531195 287.81666 
L 329.178999 270.504538 
L 332.826803 295.488 
L 336.474607 251.053319 
L 340.122411 264.281889 
L 343.770215 262.815437 
L 347.418018 214.373749 
L 351.065822 213.859145 
L 354.713626 254.655953 
L 358.36143 247.872696 
L 362.009234 270.914195 
L 365.657038 261.821873 
L 369.304842 270.506956 
L 372.952646 282.461936 
L 376.600449 264.000771 
L 380.248253 213.221213 
L 383.896057 255.351592 
L 387.543861 282.284334 
L 391.191665 277.878557 
L 394.839469 240.704028 
L 398.487273 269.627599 
" clip-path="url(#pa4657c0522)" style="fill: none; stroke: #1f77b4; stroke-width: 1.5; stroke-linecap: square"/>
   </g>
   <g id="line2d_12">
    <path d="M 73.832727 69.532257 
L 77.480531 80.935298 
L 81.128335 60.409825 
L 84.776139 96.899556 
L 88.423943 74.093474 
L 92.071747 69.532257 
L 95.719551 60.409825 
L 99.367354 58.129216 
L 103.015158 67.251649 
L 106.662962 78.65469 
L 110.310766 76.374082 
L 113.95857 69.532257 
L 117.606374 62.690433 
L 121.254178 64.971041 
L 124.901982 87.777123 
L 128.549785 67.251649 
L 132.197589 60.409825 
L 135.845393 67.251649 
L 139.493197 62.690433 
L 143.141001 67.251649 
L 146.788805 74.093474 
L 150.436609 71.812866 
L 154.084413 83.215906 
L 157.732217 62.690433 
L 161.38002 64.971041 
L 165.027824 67.251649 
L 168.675628 69.532257 
L 172.323432 83.215906 
L 175.971236 74.093474 
L 179.61904 71.812866 
L 183.266844 69.532257 
L 186.914648 78.65469 
L 190.562451 74.093474 
L 194.210255 69.532257 
L 197.858059 53.568 
L 201.505863 64.971041 
L 205.153667 71.812866 
L 208.801471 74.093474 
L 212.449275 62.690433 
L 216.097079 67.251649 
L 219.744883 62.690433 
L 223.392686 58.129216 
L 227.04049 67.251649 
L 230.688294 87.777123 
L 234.336098 71.812866 
L 237.983902 76.374082 
L 241.631706 71.812866 
L 245.27951 74.093474 
L 248.927314 85.496515 
L 252.575117 74.093474 
L 256.222921 78.65469 
L 259.870725 78.65469 
L 263.518529 69.532257 
L 267.166333 62.690433 
L 270.814137 71.812866 
L 274.461941 74.093474 
L 278.109745 78.65469 
L 281.757549 69.532257 
L 285.405352 83.215906 
L 289.053156 55.848608 
L 292.70096 74.093474 
L 296.348764 74.093474 
L 299.996568 53.568 
L 303.644372 69.532257 
L 307.292176 74.093474 
L 310.93998 74.093474 
L 314.587783 67.251649 
L 318.235587 64.971041 
L 321.883391 64.971041 
L 325.531195 71.812866 
L 329.178999 76.374082 
L 332.826803 69.532257 
L 336.474607 62.690433 
L 340.122411 67.251649 
L 343.770215 53.568 
L 347.418018 60.409825 
L 351.065822 69.532257 
L 354.713626 62.690433 
L 358.36143 53.568 
L 362.009234 76.374082 
L 365.657038 60.409825 
L 369.304842 60.409825 
L 372.952646 62.690433 
L 376.600449 62.690433 
L 380.248253 74.093474 
L 383.896057 71.812866 
L 387.543861 62.690433 
L 391.191665 69.532257 
L 394.839469 74.093474 
L 398.487273 83.215906 
" clip-path="url(#pa4657c0522)" style="fill: none; stroke: #ff7f0e; stroke-width: 1.5; stroke-linecap: square"/>
   </g>
   <g id="patch_3">
    <path d="M 57.6 307.584 
L 57.6 41.472 
" style="fill: none; stroke: #000000; stroke-width: 0.8; stroke-linejoin: miter; stroke-linecap: square"/>
   </g>
   <g id="patch_4">
    <path d="M 414.72 307.584 
L 414.72 41.472 
" style="fill: none; stroke: #000000; stroke-width: 0.8; stroke-linejoin: miter; stroke-linecap: square"/>
   </g>
   <g id="patch_5">
    <path d="M 57.6 307.584 
L 414.72 307.584 
" style="fill: none; stroke: #000000; stroke-width: 0.8; stroke-linejoin: miter; stroke-linecap: square"/>
   </g>
   <g id="patch_6">
    <path d="M 57.6 41.472 
L 414.72 41.472 
" style="fill: none; stroke: #000000; stroke-width: 0.8; stroke-linejoin: miter; stroke-linecap: square"/>
   </g>
  </g>
 </g>
 <defs>
  <clipPath id="pa4657c0522">
   <rect x="57.6" y="41.472" width="357.12" height="266.112"/>
  </clipPath>
 </defs>
</svg>
