<?xml version="1.0" encoding="utf-8" standalone="no"?>
<!DOCTYPE svg PUBLIC "-//W3C//DTD SVG 1.1//EN"
  "http://www.w3.org/Graphics/SVG/1.1/DTD/svg11.dtd">
<svg xmlns:xlink="http://www.w3.org/1999/xlink" width="460.8pt" height="345.6pt" viewBox="0 0 460.8 345.6" xmlns="http://www.w3.org/2000/svg" version="1.1">
 <metadata>
  <rdf:RDF xmlns:dc="http://purl.org/dc/elements/1.1/" xmlns:cc="http://creativecommons.org/ns#" xmlns:rdf="http://www.w3.org/1999/02/22-rdf-syntax-ns#">
   <cc:Work>
    <dc:type rdf:resource="http://purl.org/dc/dcmitype/StillImage"/>
    <dc:date>2023-10-11T11:52:44.366902</dc:date>
    <dc:format>image/svg+xml</dc:format>
    <dc:creator>
     <cc:Agent>
      <dc:title>Matplotlib v3.6.2, https://matplotlib.org/</dc:title>
     </cc:Agent>
    </dc:creator>
   </cc:Work>
  </rdf:RDF>
 </metadata>
 <defs>
  <style type="text/css">*{stroke-linejoin: round; stroke-linecap: butt}</style>
 </defs>
 <g id="figure_1">
  <g id="patch_1">
   <path d="M 0 345.6 
L 460.8 345.6 
L 460.8 0 
L 0 0 
z
" style="fill: #ffffff"/>
  </g>
  <g id="axes_1">
   <g id="patch_2">
    <path d="M 57.6 307.584 
L 414.72 307.584 
L 414.72 41.472 
L 57.6 41.472 
z
" style="fill: #ffffff"/>
   </g>
   <g id="matplotlib.axis_1">
    <g id="xtick_1">
     <g id="line2d_1">
      <defs>
       <path id="m661b434ef3" d="M 0 0 
L 0 3.5 
" style="stroke: #000000; stroke-width: 0.8"/>
      </defs>
      <g>
       <use xlink:href="#m661b434ef3" x="110.310766" y="307.584" style="stroke: #000000; stroke-width: 0.8"/>
      </g>
     </g>
     <g id="text_1">
      <!-- 20 -->
      <g transform="translate(103.948266 322.182437) scale(0.1 -0.1)">
       <defs>
        <path id="DejaVuSans-32" d="M 1228 531 
L 3431 531 
L 3431 0 
L 469 0 
L 469 531 
Q 828 903 1448 1529 
Q 2069 2156 2228 2338 
Q 2531 2678 2651 2914 
Q 2772 3150 2772 3378 
Q 2772 3750 2511 3984 
Q 2250 4219 1831 4219 
Q 1534 4219 1204 4116 
Q 875 4013 500 3803 
L 500 4441 
Q 881 4594 1212 4672 
Q 1544 4750 1819 4750 
Q 2544 4750 2975 4387 
Q 3406 4025 3406 3419 
Q 3406 3131 3298 2873 
Q 3191 2616 2906 2266 
Q 2828 2175 2409 1742 
Q 1991 1309 1228 531 
z
" transform="scale(0.015625)"/>
        <path id="DejaVuSans-30" d="M 2034 4250 
Q 1547 4250 1301 3770 
Q 1056 3291 1056 2328 
Q 1056 1369 1301 889 
Q 1547 409 2034 409 
Q 2525 409 2770 889 
Q 3016 1369 3016 2328 
Q 3016 3291 2770 3770 
Q 2525 4250 2034 4250 
z
M 2034 4750 
Q 2819 4750 3233 4129 
Q 3647 3509 3647 2328 
Q 3647 1150 3233 529 
Q 2819 -91 2034 -91 
Q 1250 -91 836 529 
Q 422 1150 422 2328 
Q 422 3509 836 4129 
Q 1250 4750 2034 4750 
z
" transform="scale(0.015625)"/>
       </defs>
       <use xlink:href="#DejaVuSans-32"/>
       <use xlink:href="#DejaVuSans-30" x="63.623047"/>
      </g>
     </g>
    </g>
    <g id="xtick_2">
     <g id="line2d_2">
      <g>
       <use xlink:href="#m661b434ef3" x="183.266844" y="307.584" style="stroke: #000000; stroke-width: 0.8"/>
      </g>
     </g>
     <g id="text_2">
      <!-- 40 -->
      <g transform="translate(176.904344 322.182437) scale(0.1 -0.1)">
       <defs>
        <path id="DejaVuSans-34" d="M 2419 4116 
L 825 1625 
L 2419 1625 
L 2419 4116 
z
M 2253 4666 
L 3047 4666 
L 3047 1625 
L 3713 1625 
L 3713 1100 
L 3047 1100 
L 3047 0 
L 2419 0 
L 2419 1100 
L 313 1100 
L 313 1709 
L 2253 4666 
z
" transform="scale(0.015625)"/>
       </defs>
       <use xlink:href="#DejaVuSans-34"/>
       <use xlink:href="#DejaVuSans-30" x="63.623047"/>
      </g>
     </g>
    </g>
    <g id="xtick_3">
     <g id="line2d_3">
      <g>
       <use xlink:href="#m661b434ef3" x="256.222921" y="307.584" style="stroke: #000000; stroke-width: 0.8"/>
      </g>
     </g>
     <g id="text_3">
      <!-- 60 -->
      <g transform="translate(249.860421 322.182437) scale(0.1 -0.1)">
       <defs>
        <path id="DejaVuSans-36" d="M 2113 2584 
Q 1688 2584 1439 2293 
Q 1191 2003 1191 1497 
Q 1191 994 1439 701 
Q 1688 409 2113 409 
Q 2538 409 2786 701 
Q 3034 994 3034 1497 
Q 3034 2003 2786 2293 
Q 2538 2584 2113 2584 
z
M 3366 4563 
L 3366 3988 
Q 3128 4100 2886 4159 
Q 2644 4219 2406 4219 
Q 1781 4219 1451 3797 
Q 1122 3375 1075 2522 
Q 1259 2794 1537 2939 
Q 1816 3084 2150 3084 
Q 2853 3084 3261 2657 
Q 3669 2231 3669 1497 
Q 3669 778 3244 343 
Q 2819 -91 2113 -91 
Q 1303 -91 875 529 
Q 447 1150 447 2328 
Q 447 3434 972 4092 
Q 1497 4750 2381 4750 
Q 2619 4750 2861 4703 
Q 3103 4656 3366 4563 
z
" transform="scale(0.015625)"/>
       </defs>
       <use xlink:href="#DejaVuSans-36"/>
       <use xlink:href="#DejaVuSans-30" x="63.623047"/>
      </g>
     </g>
    </g>
    <g id="xtick_4">
     <g id="line2d_4">
      <g>
       <use xlink:href="#m661b434ef3" x="329.178999" y="307.584" style="stroke: #000000; stroke-width: 0.8"/>
      </g>
     </g>
     <g id="text_4">
      <!-- 80 -->
      <g transform="translate(322.816499 322.182437) scale(0.1 -0.1)">
       <defs>
        <path id="DejaVuSans-38" d="M 2034 2216 
Q 1584 2216 1326 1975 
Q 1069 1734 1069 1313 
Q 1069 891 1326 650 
Q 1584 409 2034 409 
Q 2484 409 2743 651 
Q 3003 894 3003 1313 
Q 3003 1734 2745 1975 
Q 2488 2216 2034 2216 
z
M 1403 2484 
Q 997 2584 770 2862 
Q 544 3141 544 3541 
Q 544 4100 942 4425 
Q 1341 4750 2034 4750 
Q 2731 4750 3128 4425 
Q 3525 4100 3525 3541 
Q 3525 3141 3298 2862 
Q 3072 2584 2669 2484 
Q 3125 2378 3379 2068 
Q 3634 1759 3634 1313 
Q 3634 634 3220 271 
Q 2806 -91 2034 -91 
Q 1263 -91 848 271 
Q 434 634 434 1313 
Q 434 1759 690 2068 
Q 947 2378 1403 2484 
z
M 1172 3481 
Q 1172 3119 1398 2916 
Q 1625 2713 2034 2713 
Q 2441 2713 2670 2916 
Q 2900 3119 2900 3481 
Q 2900 3844 2670 4047 
Q 2441 4250 2034 4250 
Q 1625 4250 1398 4047 
Q 1172 3844 1172 3481 
z
" transform="scale(0.015625)"/>
       </defs>
       <use xlink:href="#DejaVuSans-38"/>
       <use xlink:href="#DejaVuSans-30" x="63.623047"/>
      </g>
     </g>
    </g>
    <g id="xtick_5">
     <g id="line2d_5">
      <g>
       <use xlink:href="#m661b434ef3" x="402.135077" y="307.584" style="stroke: #000000; stroke-width: 0.8"/>
      </g>
     </g>
     <g id="text_5">
      <!-- 100 -->
      <g transform="translate(392.591327 322.182437) scale(0.1 -0.1)">
       <defs>
        <path id="DejaVuSans-31" d="M 794 531 
L 1825 531 
L 1825 4091 
L 703 3866 
L 703 4441 
L 1819 4666 
L 2450 4666 
L 2450 531 
L 3481 531 
L 3481 0 
L 794 0 
L 794 531 
z
" transform="scale(0.015625)"/>
       </defs>
       <use xlink:href="#DejaVuSans-31"/>
       <use xlink:href="#DejaVuSans-30" x="63.623047"/>
       <use xlink:href="#DejaVuSans-30" x="127.246094"/>
      </g>
     </g>
    </g>
   </g>
   <g id="matplotlib.axis_2">
    <g id="ytick_1">
     <g id="line2d_6">
      <defs>
       <path id="m089e02af47" d="M 0 0 
L -3.5 0 
" style="stroke: #000000; stroke-width: 0.8"/>
      </defs>
      <g>
       <use xlink:href="#m089e02af47" x="57.6" y="295.573012" style="stroke: #000000; stroke-width: 0.8"/>
      </g>
     </g>
     <g id="text_6">
      <!-- 0.3 -->
      <g transform="translate(34.696875 299.372231) scale(0.1 -0.1)">
       <defs>
        <path id="DejaVuSans-2e" d="M 684 794 
L 1344 794 
L 1344 0 
L 684 0 
L 684 794 
z
" transform="scale(0.015625)"/>
        <path id="DejaVuSans-33" d="M 2597 2516 
Q 3050 2419 3304 2112 
Q 3559 1806 3559 1356 
Q 3559 666 3084 287 
Q 2609 -91 1734 -91 
Q 1441 -91 1130 -33 
Q 819 25 488 141 
L 488 750 
Q 750 597 1062 519 
Q 1375 441 1716 441 
Q 2309 441 2620 675 
Q 2931 909 2931 1356 
Q 2931 1769 2642 2001 
Q 2353 2234 1838 2234 
L 1294 2234 
L 1294 2753 
L 1863 2753 
Q 2328 2753 2575 2939 
Q 2822 3125 2822 3475 
Q 2822 3834 2567 4026 
Q 2313 4219 1838 4219 
Q 1578 4219 1281 4162 
Q 984 4106 628 3988 
L 628 4550 
Q 988 4650 1302 4700 
Q 1616 4750 1894 4750 
Q 2613 4750 3031 4423 
Q 3450 4097 3450 3541 
Q 3450 3153 3228 2886 
Q 3006 2619 2597 2516 
z
" transform="scale(0.015625)"/>
       </defs>
       <use xlink:href="#DejaVuSans-30"/>
       <use xlink:href="#DejaVuSans-2e" x="63.623047"/>
       <use xlink:href="#DejaVuSans-33" x="95.410156"/>
      </g>
     </g>
    </g>
    <g id="ytick_2">
     <g id="line2d_7">
      <g>
       <use xlink:href="#m089e02af47" x="57.6" y="253.063789" style="stroke: #000000; stroke-width: 0.8"/>
      </g>
     </g>
     <g id="text_7">
      <!-- 0.4 -->
      <g transform="translate(34.696875 256.863008) scale(0.1 -0.1)">
       <use xlink:href="#DejaVuSans-30"/>
       <use xlink:href="#DejaVuSans-2e" x="63.623047"/>
       <use xlink:href="#DejaVuSans-34" x="95.410156"/>
      </g>
     </g>
    </g>
    <g id="ytick_3">
     <g id="line2d_8">
      <g>
       <use xlink:href="#m089e02af47" x="57.6" y="210.554565" style="stroke: #000000; stroke-width: 0.8"/>
      </g>
     </g>
     <g id="text_8">
      <!-- 0.5 -->
      <g transform="translate(34.696875 214.353784) scale(0.1 -0.1)">
       <defs>
        <path id="DejaVuSans-35" d="M 691 4666 
L 3169 4666 
L 3169 4134 
L 1269 4134 
L 1269 2991 
Q 1406 3038 1543 3061 
Q 1681 3084 1819 3084 
Q 2600 3084 3056 2656 
Q 3513 2228 3513 1497 
Q 3513 744 3044 326 
Q 2575 -91 1722 -91 
Q 1428 -91 1123 -41 
Q 819 9 494 109 
L 494 744 
Q 775 591 1075 516 
Q 1375 441 1709 441 
Q 2250 441 2565 725 
Q 2881 1009 2881 1497 
Q 2881 1984 2565 2268 
Q 2250 2553 1709 2553 
Q 1456 2553 1204 2497 
Q 953 2441 691 2322 
L 691 4666 
z
" transform="scale(0.015625)"/>
       </defs>
       <use xlink:href="#DejaVuSans-30"/>
       <use xlink:href="#DejaVuSans-2e" x="63.623047"/>
       <use xlink:href="#DejaVuSans-35" x="95.410156"/>
      </g>
     </g>
    </g>
    <g id="ytick_4">
     <g id="line2d_9">
      <g>
       <use xlink:href="#m089e02af47" x="57.6" y="168.045342" style="stroke: #000000; stroke-width: 0.8"/>
      </g>
     </g>
     <g id="text_9">
      <!-- 0.6 -->
      <g transform="translate(34.696875 171.844561) scale(0.1 -0.1)">
       <use xlink:href="#DejaVuSans-30"/>
       <use xlink:href="#DejaVuSans-2e" x="63.623047"/>
       <use xlink:href="#DejaVuSans-36" x="95.410156"/>
      </g>
     </g>
    </g>
    <g id="ytick_5">
     <g id="line2d_10">
      <g>
       <use xlink:href="#m089e02af47" x="57.6" y="125.536119" style="stroke: #000000; stroke-width: 0.8"/>
      </g>
     </g>
     <g id="text_10">
      <!-- 0.7 -->
      <g transform="translate(34.696875 129.335337) scale(0.1 -0.1)">
       <defs>
        <path id="DejaVuSans-37" d="M 525 4666 
L 3525 4666 
L 3525 4397 
L 1831 0 
L 1172 0 
L 2766 4134 
L 525 4134 
L 525 4666 
z
" transform="scale(0.015625)"/>
       </defs>
       <use xlink:href="#DejaVuSans-30"/>
       <use xlink:href="#DejaVuSans-2e" x="63.623047"/>
       <use xlink:href="#DejaVuSans-37" x="95.410156"/>
      </g>
     </g>
    </g>
    <g id="ytick_6">
     <g id="line2d_11">
      <g>
       <use xlink:href="#m089e02af47" x="57.6" y="83.026895" style="stroke: #000000; stroke-width: 0.8"/>
      </g>
     </g>
     <g id="text_11">
      <!-- 0.8 -->
      <g transform="translate(34.696875 86.826114) scale(0.1 -0.1)">
       <use xlink:href="#DejaVuSans-30"/>
       <use xlink:href="#DejaVuSans-2e" x="63.623047"/>
       <use xlink:href="#DejaVuSans-38" x="95.410156"/>
      </g>
     </g>
    </g>
   </g>
   <g id="line2d_12">
    <path d="M 73.832727 183.646221 
L 77.480531 96.714876 
L 81.128335 127.321503 
L 84.776139 88.255531 
L 88.423943 93.441655 
L 92.071747 95.397074 
L 95.719551 82.47428 
L 99.367354 93.824226 
L 103.015158 81.369034 
L 106.662962 105.259229 
L 110.310766 78.478409 
L 113.95857 86.555158 
L 117.606374 77.585719 
L 121.254178 82.1342 
L 124.901982 69.126373 
L 128.549785 82.64432 
L 132.197589 76.437957 
L 135.845393 71.974508 
L 139.493197 77.628235 
L 143.141001 70.104095 
L 146.788805 80.221297 
L 150.436609 70.954269 
L 154.084413 68.82881 
L 157.732217 75.545267 
L 161.38002 70.869262 
L 165.027824 70.996785 
L 168.675628 71.634428 
L 172.323432 67.255961 
L 175.971236 71.506905 
L 179.61904 67.000914 
L 183.266844 71.336865 
L 186.914648 65.895668 
L 190.562451 80.093748 
L 194.210255 65.343058 
L 197.858059 62.53744 
L 201.505863 69.253897 
L 205.153667 66.193231 
L 208.801471 63.770209 
L 212.449275 67.000914 
L 216.097079 65.768145 
L 219.744883 60.454497 
L 223.392686 68.148676 
L 227.04049 65.258051 
L 230.688294 63.685202 
L 234.336098 60.667053 
L 237.983902 61.772273 
L 241.631706 67.255961 
L 245.27951 61.177147 
L 248.927314 66.023217 
L 252.575117 69.7215 
L 256.222921 63.940249 
L 259.870725 60.837093 
L 263.518529 62.962552 
L 267.166333 61.942313 
L 270.814137 60.9221 
L 274.461941 63.855242 
L 278.109745 60.794576 
L 281.757549 64.152805 
L 285.405352 59.561807 
L 289.053156 65.980701 
L 292.70096 61.30467 
L 296.348764 63.302606 
L 299.996568 62.197385 
L 303.644372 62.239876 
L 307.292176 57.691395 
L 310.93998 60.071926 
L 314.587783 63.642685 
L 318.235587 63.897732 
L 321.883391 71.464388 
L 325.531195 60.879584 
L 329.178999 59.604323 
L 332.826803 61.432219 
L 336.474607 58.456561 
L 340.122411 58.201514 
L 343.770215 57.351315 
L 347.418018 59.13672 
L 351.065822 60.326973 
L 354.713626 58.24403 
L 358.36143 56.671181 
L 362.009234 59.604323 
L 365.657038 58.073991 
L 369.304842 62.877519 
L 372.952646 55.438412 
L 376.600449 57.096268 
L 380.248253 56.118546 
L 383.896057 60.19945 
L 387.543861 57.946442 
L 391.191665 57.946442 
L 394.839469 59.094204 
L 398.487273 55.310889 
" clip-path="url(#p4aab752155)" style="fill: none; stroke: #1f77b4; stroke-width: 1.5; stroke-linecap: square"/>
   </g>
   <g id="line2d_13">
    <path d="M 73.832727 93.144092 
L 77.480531 97.73509 
L 81.128335 89.148221 
L 84.776139 94.334345 
L 88.423943 85.960032 
L 92.071747 80.51886 
L 95.719551 77.670726 
L 99.367354 78.733456 
L 103.015158 82.30424 
L 106.662962 75.84283 
L 110.310766 82.686811 
L 113.95857 74.652577 
L 117.606374 77.160632 
L 121.254178 85.024826 
L 124.901982 74.014934 
L 128.549785 67.340993 
L 132.197589 68.573763 
L 135.845393 76.225426 
L 139.493197 74.737584 
L 143.141001 74.142458 
L 146.788805 70.274135 
L 150.436609 75.715307 
L 154.084413 72.059515 
L 157.732217 75.12018 
L 161.38002 71.251832 
L 165.027824 82.85685 
L 168.675628 70.401659 
L 172.323432 69.891539 
L 175.971236 67.340993 
L 179.61904 71.294349 
L 183.266844 64.960487 
L 186.914648 68.573763 
L 190.562451 68.318716 
L 194.210255 69.253897 
L 197.858059 66.703351 
L 201.505863 67.76608 
L 205.153667 70.869262 
L 208.801471 62.962552 
L 212.449275 63.175082 
L 216.097079 66.533311 
L 219.744883 66.278264 
L 223.392686 61.899822 
L 227.04049 64.960487 
L 230.688294 61.984829 
L 234.336098 61.30467 
L 237.983902 63.387638 
L 241.631706 65.725654 
L 245.27951 63.897732 
L 248.927314 62.749996 
L 252.575117 61.219663 
L 256.222921 65.895668 
L 259.870725 70.104095 
L 263.518529 58.584085 
L 267.166333 64.025281 
L 270.814137 60.624537 
L 274.461941 63.047559 
L 278.109745 60.709544 
L 281.757549 59.986894 
L 285.405352 59.561807 
L 289.053156 65.810661 
L 292.70096 58.754124 
L 296.348764 58.414045 
L 299.996568 60.241941 
L 303.644372 63.982765 
L 307.292176 60.071926 
L 310.93998 64.025281 
L 314.587783 63.472646 
L 318.235587 58.96668 
L 321.883391 58.839157 
L 325.531195 57.053752 
L 329.178999 59.774338 
L 332.826803 60.497013 
L 336.474607 57.903951 
L 340.122411 58.924164 
L 343.770215 60.071926 
L 347.418018 56.373618 
L 351.065822 59.85937 
L 354.713626 58.839157 
L 358.36143 59.816854 
L 362.009234 57.393832 
L 365.657038 57.393832 
L 369.304842 55.480928 
L 372.952646 55.863499 
L 376.600449 61.729782 
L 380.248253 58.031474 
L 383.896057 56.458625 
L 387.543861 60.624537 
L 391.191665 54.758253 
L 394.839469 57.903951 
L 398.487273 56.246095 
" clip-path="url(#p4aab752155)" style="fill: none; stroke: #ff7f0e; stroke-width: 1.5; stroke-linecap: square"/>
   </g>
   <g id="line2d_14">
    <path d="M 73.832727 258.037367 
L 77.480531 295.488 
L 81.128335 215.145563 
L 84.776139 208.259067 
L 88.423943 211.872355 
L 92.071747 230.321353 
L 95.719551 245.752203 
L 99.367354 198.907031 
L 103.015158 155.335093 
L 106.662962 169.873228 
L 110.310766 144.410209 
L 113.95857 195.208748 
L 117.606374 159.798542 
L 121.254178 193.423343 
L 124.901982 134.03796 
L 128.549785 138.118839 
L 132.197589 141.77463 
L 135.845393 125.96121 
L 139.493197 135.950889 
L 143.141001 171.91368 
L 146.788805 143.219956 
L 150.436609 131.912501 
L 154.084413 142.029703 
L 157.732217 124.898481 
L 161.38002 137.991315 
L 165.027824 157.970646 
L 168.675628 125.748654 
L 172.323432 126.30129 
L 175.971236 127.491543 
L 179.61904 118.819667 
L 183.266844 122.050372 
L 186.914648 109.850227 
L 190.562451 113.165939 
L 194.210255 113.293463 
L 197.858059 121.327696 
L 201.505863 121.710292 
L 205.153667 103.303785 
L 208.801471 103.813904 
L 212.449275 120.775086 
L 216.097079 118.649627 
L 219.744883 110.572877 
L 223.392686 107.894782 
L 227.04049 104.111467 
L 230.688294 112.358257 
L 234.336098 102.326087 
L 237.983902 99.605502 
L 241.631706 97.22497 
L 245.27951 103.13377 
L 248.927314 96.459804 
L 252.575117 94.376861 
L 256.222921 106.789562 
L 259.870725 96.67236 
L 263.518529 103.048738 
L 267.166333 98.075169 
L 270.814137 100.030589 
L 274.461941 102.368604 
L 278.109745 109.552638 
L 281.757549 91.953839 
L 285.405352 91.741283 
L 289.053156 107.384688 
L 292.70096 92.974052 
L 296.348764 98.2877 
L 299.996568 101.773452 
L 303.644372 93.654211 
L 307.292176 97.820097 
L 310.93998 92.889045 
L 314.587783 84.939819 
L 318.235587 94.461868 
L 321.883391 86.427635 
L 325.531195 103.346301 
L 329.178999 90.806077 
L 332.826803 87.532881 
L 336.474607 88.000484 
L 340.122411 90.253466 
L 343.770215 95.524598 
L 347.418018 92.633973 
L 351.065822 88.170524 
L 354.713626 88.298047 
L 358.36143 88.638101 
L 362.009234 93.526662 
L 365.657038 86.682682 
L 369.304842 85.279873 
L 372.952646 86.257595 
L 376.600449 86.555158 
L 380.248253 80.051257 
L 383.896057 91.911322 
L 387.543861 85.152349 
L 391.191665 86.555158 
L 394.839469 90.55103 
L 398.487273 88.383054 
" clip-path="url(#p4aab752155)" style="fill: none; stroke: #2ca02c; stroke-width: 1.5; stroke-linecap: square"/>
   </g>
   <g id="line2d_15">
    <path d="M 73.832727 162.646677 
L 77.480531 93.271615 
L 81.128335 106.832053 
L 84.776139 95.354558 
L 88.423943 88.000484 
L 92.071747 91.99633 
L 95.719551 91.358712 
L 99.367354 91.358712 
L 103.015158 100.158112 
L 106.662962 80.476344 
L 110.310766 91.656275 
L 113.95857 76.267917 
L 117.606374 72.442111 
L 121.254178 77.968289 
L 124.901982 73.589847 
L 128.549785 79.328582 
L 132.197589 76.778036 
L 135.845393 77.288155 
L 139.493197 75.84283 
L 143.141001 80.178781 
L 146.788805 68.148676 
L 150.436609 77.840766 
L 154.084413 84.08962 
L 157.732217 74.56757 
L 161.38002 64.365335 
L 165.027824 70.401659 
L 168.675628 65.980701 
L 172.323432 69.593976 
L 175.971236 67.468517 
L 179.61904 63.387638 
L 183.266844 66.023217 
L 186.914648 68.021127 
L 190.562451 63.982765 
L 194.210255 64.790448 
L 197.858059 66.703351 
L 201.505863 72.782165 
L 205.153667 64.832939 
L 208.801471 58.754124 
L 212.449275 60.241941 
L 216.097079 64.705415 
L 219.744883 60.794576 
L 223.392686 72.612125 
L 227.04049 65.002978 
L 230.688294 63.302606 
L 234.336098 62.664988 
L 237.983902 62.367425 
L 241.631706 67.298477 
L 245.27951 68.446239 
L 248.927314 60.19945 
L 252.575117 63.302606 
L 256.222921 64.705415 
L 259.870725 65.258051 
L 263.518529 69.211406 
L 267.166333 61.262179 
L 270.814137 67.55355 
L 274.461941 58.456561 
L 278.109745 61.64475 
L 281.757549 60.284457 
L 285.405352 62.749996 
L 289.053156 60.071926 
L 292.70096 59.221727 
L 296.348764 62.579956 
L 299.996568 62.069837 
L 303.644372 60.156933 
L 307.292176 58.329038 
L 310.93998 56.586149 
L 314.587783 56.798705 
L 318.235587 60.58202 
L 321.883391 60.879584 
L 325.531195 57.606388 
L 329.178999 61.602259 
L 332.826803 60.497013 
L 336.474607 60.624537 
L 340.122411 59.30676 
L 343.770215 62.53744 
L 347.418018 58.414045 
L 351.065822 58.073991 
L 354.713626 58.414045 
L 358.36143 69.679009 
L 362.009234 61.857306 
L 365.657038 59.604323 
L 369.304842 53.568 
L 372.952646 57.436348 
L 376.600449 58.839157 
L 380.248253 59.094204 
L 383.896057 56.288586 
L 387.543861 55.055816 
L 391.191665 57.181275 
L 394.839469 55.820983 
L 398.487273 62.792512 
" clip-path="url(#p4aab752155)" style="fill: none; stroke: #d62728; stroke-width: 1.5; stroke-linecap: square"/>
   </g>
   <g id="patch_3">
    <path d="M 57.6 307.584 
L 57.6 41.472 
" style="fill: none; stroke: #000000; stroke-width: 0.8; stroke-linejoin: miter; stroke-linecap: square"/>
   </g>
   <g id="patch_4">
    <path d="M 414.72 307.584 
L 414.72 41.472 
" style="fill: none; stroke: #000000; stroke-width: 0.8; stroke-linejoin: miter; stroke-linecap: square"/>
   </g>
   <g id="patch_5">
    <path d="M 57.6 307.584 
L 414.72 307.584 
" style="fill: none; stroke: #000000; stroke-width: 0.8; stroke-linejoin: miter; stroke-linecap: square"/>
   </g>
   <g id="patch_6">
    <path d="M 57.6 41.472 
L 414.72 41.472 
" style="fill: none; stroke: #000000; stroke-width: 0.8; stroke-linejoin: miter; stroke-linecap: square"/>
   </g>
   <g id="text_12">
    <!-- 100 Iterations each -->
    <g transform="translate(177.8475 35.472) scale(0.12 -0.12)">
     <defs>
      <path id="DejaVuSans-20" transform="scale(0.015625)"/>
      <path id="DejaVuSans-49" d="M 628 4666 
L 1259 4666 
L 1259 0 
L 628 0 
L 628 4666 
z
" transform="scale(0.015625)"/>
      <path id="DejaVuSans-74" d="M 1172 4494 
L 1172 3500 
L 2356 3500 
L 2356 3053 
L 1172 3053 
L 1172 1153 
Q 1172 725 1289 603 
Q 1406 481 1766 481 
L 2356 481 
L 2356 0 
L 1766 0 
Q 1100 0 847 248 
Q 594 497 594 1153 
L 594 3053 
L 172 3053 
L 172 3500 
L 594 3500 
L 594 4494 
L 1172 4494 
z
" transform="scale(0.015625)"/>
      <path id="DejaVuSans-65" d="M 3597 1894 
L 3597 1613 
L 953 1613 
Q 991 1019 1311 708 
Q 1631 397 2203 397 
Q 2534 397 2845 478 
Q 3156 559 3463 722 
L 3463 178 
Q 3153 47 2828 -22 
Q 2503 -91 2169 -91 
Q 1331 -91 842 396 
Q 353 884 353 1716 
Q 353 2575 817 3079 
Q 1281 3584 2069 3584 
Q 2775 3584 3186 3129 
Q 3597 2675 3597 1894 
z
M 3022 2063 
Q 3016 2534 2758 2815 
Q 2500 3097 2075 3097 
Q 1594 3097 1305 2825 
Q 1016 2553 972 2059 
L 3022 2063 
z
" transform="scale(0.015625)"/>
      <path id="DejaVuSans-72" d="M 2631 2963 
Q 2534 3019 2420 3045 
Q 2306 3072 2169 3072 
Q 1681 3072 1420 2755 
Q 1159 2438 1159 1844 
L 1159 0 
L 581 0 
L 581 3500 
L 1159 3500 
L 1159 2956 
Q 1341 3275 1631 3429 
Q 1922 3584 2338 3584 
Q 2397 3584 2469 3576 
Q 2541 3569 2628 3553 
L 2631 2963 
z
" transform="scale(0.015625)"/>
      <path id="DejaVuSans-61" d="M 2194 1759 
Q 1497 1759 1228 1600 
Q 959 1441 959 1056 
Q 959 750 1161 570 
Q 1363 391 1709 391 
Q 2188 391 2477 730 
Q 2766 1069 2766 1631 
L 2766 1759 
L 2194 1759 
z
M 3341 1997 
L 3341 0 
L 2766 0 
L 2766 531 
Q 2569 213 2275 61 
Q 1981 -91 1556 -91 
Q 1019 -91 701 211 
Q 384 513 384 1019 
Q 384 1609 779 1909 
Q 1175 2209 1959 2209 
L 2766 2209 
L 2766 2266 
Q 2766 2663 2505 2880 
Q 2244 3097 1772 3097 
Q 1472 3097 1187 3025 
Q 903 2953 641 2809 
L 641 3341 
Q 956 3463 1253 3523 
Q 1550 3584 1831 3584 
Q 2591 3584 2966 3190 
Q 3341 2797 3341 1997 
z
" transform="scale(0.015625)"/>
      <path id="DejaVuSans-69" d="M 603 3500 
L 1178 3500 
L 1178 0 
L 603 0 
L 603 3500 
z
M 603 4863 
L 1178 4863 
L 1178 4134 
L 603 4134 
L 603 4863 
z
" transform="scale(0.015625)"/>
      <path id="DejaVuSans-6f" d="M 1959 3097 
Q 1497 3097 1228 2736 
Q 959 2375 959 1747 
Q 959 1119 1226 758 
Q 1494 397 1959 397 
Q 2419 397 2687 759 
Q 2956 1122 2956 1747 
Q 2956 2369 2687 2733 
Q 2419 3097 1959 3097 
z
M 1959 3584 
Q 2709 3584 3137 3096 
Q 3566 2609 3566 1747 
Q 3566 888 3137 398 
Q 2709 -91 1959 -91 
Q 1206 -91 779 398 
Q 353 888 353 1747 
Q 353 2609 779 3096 
Q 1206 3584 1959 3584 
z
" transform="scale(0.015625)"/>
      <path id="DejaVuSans-6e" d="M 3513 2113 
L 3513 0 
L 2938 0 
L 2938 2094 
Q 2938 2591 2744 2837 
Q 2550 3084 2163 3084 
Q 1697 3084 1428 2787 
Q 1159 2491 1159 1978 
L 1159 0 
L 581 0 
L 581 3500 
L 1159 3500 
L 1159 2956 
Q 1366 3272 1645 3428 
Q 1925 3584 2291 3584 
Q 2894 3584 3203 3211 
Q 3513 2838 3513 2113 
z
" transform="scale(0.015625)"/>
      <path id="DejaVuSans-73" d="M 2834 3397 
L 2834 2853 
Q 2591 2978 2328 3040 
Q 2066 3103 1784 3103 
Q 1356 3103 1142 2972 
Q 928 2841 928 2578 
Q 928 2378 1081 2264 
Q 1234 2150 1697 2047 
L 1894 2003 
Q 2506 1872 2764 1633 
Q 3022 1394 3022 966 
Q 3022 478 2636 193 
Q 2250 -91 1575 -91 
Q 1294 -91 989 -36 
Q 684 19 347 128 
L 347 722 
Q 666 556 975 473 
Q 1284 391 1588 391 
Q 1994 391 2212 530 
Q 2431 669 2431 922 
Q 2431 1156 2273 1281 
Q 2116 1406 1581 1522 
L 1381 1569 
Q 847 1681 609 1914 
Q 372 2147 372 2553 
Q 372 3047 722 3315 
Q 1072 3584 1716 3584 
Q 2034 3584 2315 3537 
Q 2597 3491 2834 3397 
z
" transform="scale(0.015625)"/>
      <path id="DejaVuSans-63" d="M 3122 3366 
L 3122 2828 
Q 2878 2963 2633 3030 
Q 2388 3097 2138 3097 
Q 1578 3097 1268 2742 
Q 959 2388 959 1747 
Q 959 1106 1268 751 
Q 1578 397 2138 397 
Q 2388 397 2633 464 
Q 2878 531 3122 666 
L 3122 134 
Q 2881 22 2623 -34 
Q 2366 -91 2075 -91 
Q 1284 -91 818 406 
Q 353 903 353 1747 
Q 353 2603 823 3093 
Q 1294 3584 2113 3584 
Q 2378 3584 2631 3529 
Q 2884 3475 3122 3366 
z
" transform="scale(0.015625)"/>
      <path id="DejaVuSans-68" d="M 3513 2113 
L 3513 0 
L 2938 0 
L 2938 2094 
Q 2938 2591 2744 2837 
Q 2550 3084 2163 3084 
Q 1697 3084 1428 2787 
Q 1159 2491 1159 1978 
L 1159 0 
L 581 0 
L 581 4863 
L 1159 4863 
L 1159 2956 
Q 1366 3272 1645 3428 
Q 1925 3584 2291 3584 
Q 2894 3584 3203 3211 
Q 3513 2838 3513 2113 
z
" transform="scale(0.015625)"/>
     </defs>
     <use xlink:href="#DejaVuSans-31"/>
     <use xlink:href="#DejaVuSans-30" x="63.623047"/>
     <use xlink:href="#DejaVuSans-30" x="127.246094"/>
     <use xlink:href="#DejaVuSans-20" x="190.869141"/>
     <use xlink:href="#DejaVuSans-49" x="222.65625"/>
     <use xlink:href="#DejaVuSans-74" x="252.148438"/>
     <use xlink:href="#DejaVuSans-65" x="291.357422"/>
     <use xlink:href="#DejaVuSans-72" x="352.880859"/>
     <use xlink:href="#DejaVuSans-61" x="393.994141"/>
     <use xlink:href="#DejaVuSans-74" x="455.273438"/>
     <use xlink:href="#DejaVuSans-69" x="494.482422"/>
     <use xlink:href="#DejaVuSans-6f" x="522.265625"/>
     <use xlink:href="#DejaVuSans-6e" x="583.447266"/>
     <use xlink:href="#DejaVuSans-73" x="646.826172"/>
     <use xlink:href="#DejaVuSans-20" x="698.925781"/>
     <use xlink:href="#DejaVuSans-65" x="730.712891"/>
     <use xlink:href="#DejaVuSans-61" x="792.236328"/>
     <use xlink:href="#DejaVuSans-63" x="853.515625"/>
     <use xlink:href="#DejaVuSans-68" x="908.496094"/>
    </g>
   </g>
   <g id="legend_1">
    <g id="patch_7">
     <path d="M 232.880937 302.584 
L 407.72 302.584 
Q 409.72 302.584 409.72 300.584 
L 409.72 242.037125 
Q 409.72 240.037125 407.72 240.037125 
L 232.880937 240.037125 
Q 230.880937 240.037125 230.880937 242.037125 
L 230.880937 300.584 
Q 230.880937 302.584 232.880937 302.584 
z
" style="fill: #ffffff; opacity: 0.8; stroke: #cccccc; stroke-linejoin: miter"/>
    </g>
    <g id="line2d_16">
     <path d="M 234.880937 248.135562 
L 244.880937 248.135562 
L 254.880937 248.135562 
" style="fill: none; stroke: #1f77b4; stroke-width: 1.5; stroke-linecap: square"/>
    </g>
    <g id="text_13">
     <!-- acc init -->
     <g transform="translate(262.880937 251.635562) scale(0.1 -0.1)">
      <use xlink:href="#DejaVuSans-61"/>
      <use xlink:href="#DejaVuSans-63" x="61.279297"/>
      <use xlink:href="#DejaVuSans-63" x="116.259766"/>
      <use xlink:href="#DejaVuSans-20" x="171.240234"/>
      <use xlink:href="#DejaVuSans-69" x="203.027344"/>
      <use xlink:href="#DejaVuSans-6e" x="230.810547"/>
      <use xlink:href="#DejaVuSans-69" x="294.189453"/>
      <use xlink:href="#DejaVuSans-74" x="321.972656"/>
     </g>
    </g>
    <g id="line2d_17">
     <path d="M 234.880937 262.813688 
L 244.880937 262.813688 
L 254.880937 262.813688 
" style="fill: none; stroke: #ff7f0e; stroke-width: 1.5; stroke-linecap: square"/>
    </g>
    <g id="text_14">
     <!-- acc init_bias_0 -->
     <g transform="translate(262.880937 266.313688) scale(0.1 -0.1)">
      <defs>
       <path id="DejaVuSans-5f" d="M 3263 -1063 
L 3263 -1509 
L -63 -1509 
L -63 -1063 
L 3263 -1063 
z
" transform="scale(0.015625)"/>
       <path id="DejaVuSans-62" d="M 3116 1747 
Q 3116 2381 2855 2742 
Q 2594 3103 2138 3103 
Q 1681 3103 1420 2742 
Q 1159 2381 1159 1747 
Q 1159 1113 1420 752 
Q 1681 391 2138 391 
Q 2594 391 2855 752 
Q 3116 1113 3116 1747 
z
M 1159 2969 
Q 1341 3281 1617 3432 
Q 1894 3584 2278 3584 
Q 2916 3584 3314 3078 
Q 3713 2572 3713 1747 
Q 3713 922 3314 415 
Q 2916 -91 2278 -91 
Q 1894 -91 1617 61 
Q 1341 213 1159 525 
L 1159 0 
L 581 0 
L 581 4863 
L 1159 4863 
L 1159 2969 
z
" transform="scale(0.015625)"/>
      </defs>
      <use xlink:href="#DejaVuSans-61"/>
      <use xlink:href="#DejaVuSans-63" x="61.279297"/>
      <use xlink:href="#DejaVuSans-63" x="116.259766"/>
      <use xlink:href="#DejaVuSans-20" x="171.240234"/>
      <use xlink:href="#DejaVuSans-69" x="203.027344"/>
      <use xlink:href="#DejaVuSans-6e" x="230.810547"/>
      <use xlink:href="#DejaVuSans-69" x="294.189453"/>
      <use xlink:href="#DejaVuSans-74" x="321.972656"/>
      <use xlink:href="#DejaVuSans-5f" x="361.181641"/>
      <use xlink:href="#DejaVuSans-62" x="411.181641"/>
      <use xlink:href="#DejaVuSans-69" x="474.658203"/>
      <use xlink:href="#DejaVuSans-61" x="502.441406"/>
      <use xlink:href="#DejaVuSans-73" x="563.720703"/>
      <use xlink:href="#DejaVuSans-5f" x="615.820312"/>
      <use xlink:href="#DejaVuSans-30" x="665.820312"/>
     </g>
    </g>
    <g id="line2d_18">
     <path d="M 234.880937 277.769937 
L 244.880937 277.769937 
L 254.880937 277.769937 
" style="fill: none; stroke: #2ca02c; stroke-width: 1.5; stroke-linecap: square"/>
    </g>
    <g id="text_15">
     <!-- acc init_big_values -->
     <g transform="translate(262.880937 281.269937) scale(0.1 -0.1)">
      <defs>
       <path id="DejaVuSans-67" d="M 2906 1791 
Q 2906 2416 2648 2759 
Q 2391 3103 1925 3103 
Q 1463 3103 1205 2759 
Q 947 2416 947 1791 
Q 947 1169 1205 825 
Q 1463 481 1925 481 
Q 2391 481 2648 825 
Q 2906 1169 2906 1791 
z
M 3481 434 
Q 3481 -459 3084 -895 
Q 2688 -1331 1869 -1331 
Q 1566 -1331 1297 -1286 
Q 1028 -1241 775 -1147 
L 775 -588 
Q 1028 -725 1275 -790 
Q 1522 -856 1778 -856 
Q 2344 -856 2625 -561 
Q 2906 -266 2906 331 
L 2906 616 
Q 2728 306 2450 153 
Q 2172 0 1784 0 
Q 1141 0 747 490 
Q 353 981 353 1791 
Q 353 2603 747 3093 
Q 1141 3584 1784 3584 
Q 2172 3584 2450 3431 
Q 2728 3278 2906 2969 
L 2906 3500 
L 3481 3500 
L 3481 434 
z
" transform="scale(0.015625)"/>
       <path id="DejaVuSans-76" d="M 191 3500 
L 800 3500 
L 1894 563 
L 2988 3500 
L 3597 3500 
L 2284 0 
L 1503 0 
L 191 3500 
z
" transform="scale(0.015625)"/>
       <path id="DejaVuSans-6c" d="M 603 4863 
L 1178 4863 
L 1178 0 
L 603 0 
L 603 4863 
z
" transform="scale(0.015625)"/>
       <path id="DejaVuSans-75" d="M 544 1381 
L 544 3500 
L 1119 3500 
L 1119 1403 
Q 1119 906 1312 657 
Q 1506 409 1894 409 
Q 2359 409 2629 706 
Q 2900 1003 2900 1516 
L 2900 3500 
L 3475 3500 
L 3475 0 
L 2900 0 
L 2900 538 
Q 2691 219 2414 64 
Q 2138 -91 1772 -91 
Q 1169 -91 856 284 
Q 544 659 544 1381 
z
M 1991 3584 
L 1991 3584 
z
" transform="scale(0.015625)"/>
      </defs>
      <use xlink:href="#DejaVuSans-61"/>
      <use xlink:href="#DejaVuSans-63" x="61.279297"/>
      <use xlink:href="#DejaVuSans-63" x="116.259766"/>
      <use xlink:href="#DejaVuSans-20" x="171.240234"/>
      <use xlink:href="#DejaVuSans-69" x="203.027344"/>
      <use xlink:href="#DejaVuSans-6e" x="230.810547"/>
      <use xlink:href="#DejaVuSans-69" x="294.189453"/>
      <use xlink:href="#DejaVuSans-74" x="321.972656"/>
      <use xlink:href="#DejaVuSans-5f" x="361.181641"/>
      <use xlink:href="#DejaVuSans-62" x="411.181641"/>
      <use xlink:href="#DejaVuSans-69" x="474.658203"/>
      <use xlink:href="#DejaVuSans-67" x="502.441406"/>
      <use xlink:href="#DejaVuSans-5f" x="565.917969"/>
      <use xlink:href="#DejaVuSans-76" x="615.917969"/>
      <use xlink:href="#DejaVuSans-61" x="675.097656"/>
      <use xlink:href="#DejaVuSans-6c" x="736.376953"/>
      <use xlink:href="#DejaVuSans-75" x="764.160156"/>
      <use xlink:href="#DejaVuSans-65" x="827.539062"/>
      <use xlink:href="#DejaVuSans-73" x="889.0625"/>
     </g>
    </g>
    <g id="line2d_19">
     <path d="M 234.880937 292.726187 
L 244.880937 292.726187 
L 254.880937 292.726187 
" style="fill: none; stroke: #d62728; stroke-width: 1.5; stroke-linecap: square"/>
    </g>
    <g id="text_16">
     <!-- acc init_negative_biases_too -->
     <g transform="translate(262.880937 296.226187) scale(0.1 -0.1)">
      <use xlink:href="#DejaVuSans-61"/>
      <use xlink:href="#DejaVuSans-63" x="61.279297"/>
      <use xlink:href="#DejaVuSans-63" x="116.259766"/>
      <use xlink:href="#DejaVuSans-20" x="171.240234"/>
      <use xlink:href="#DejaVuSans-69" x="203.027344"/>
      <use xlink:href="#DejaVuSans-6e" x="230.810547"/>
      <use xlink:href="#DejaVuSans-69" x="294.189453"/>
      <use xlink:href="#DejaVuSans-74" x="321.972656"/>
      <use xlink:href="#DejaVuSans-5f" x="361.181641"/>
      <use xlink:href="#DejaVuSans-6e" x="411.181641"/>
      <use xlink:href="#DejaVuSans-65" x="474.560547"/>
      <use xlink:href="#DejaVuSans-67" x="536.083984"/>
      <use xlink:href="#DejaVuSans-61" x="599.560547"/>
      <use xlink:href="#DejaVuSans-74" x="660.839844"/>
      <use xlink:href="#DejaVuSans-69" x="700.048828"/>
      <use xlink:href="#DejaVuSans-76" x="727.832031"/>
      <use xlink:href="#DejaVuSans-65" x="787.011719"/>
      <use xlink:href="#DejaVuSans-5f" x="848.535156"/>
      <use xlink:href="#DejaVuSans-62" x="898.535156"/>
      <use xlink:href="#DejaVuSans-69" x="962.011719"/>
      <use xlink:href="#DejaVuSans-61" x="989.794922"/>
      <use xlink:href="#DejaVuSans-73" x="1051.074219"/>
      <use xlink:href="#DejaVuSans-65" x="1103.173828"/>
      <use xlink:href="#DejaVuSans-73" x="1164.697266"/>
      <use xlink:href="#DejaVuSans-5f" x="1216.796875"/>
      <use xlink:href="#DejaVuSans-74" x="1266.796875"/>
      <use xlink:href="#DejaVuSans-6f" x="1306.005859"/>
      <use xlink:href="#DejaVuSans-6f" x="1367.1875"/>
     </g>
    </g>
   </g>
  </g>
 </g>
 <defs>
  <clipPath id="p4aab752155">
   <rect x="57.6" y="41.472" width="357.12" height="266.112"/>
  </clipPath>
 </defs>
</svg>
