<?xml version="1.0" encoding="utf-8" standalone="no"?>
<!DOCTYPE svg PUBLIC "-//W3C//DTD SVG 1.1//EN"
  "http://www.w3.org/Graphics/SVG/1.1/DTD/svg11.dtd">
<svg xmlns:xlink="http://www.w3.org/1999/xlink" width="460.8pt" height="345.6pt" viewBox="0 0 460.8 345.6" xmlns="http://www.w3.org/2000/svg" version="1.1">
 <metadata>
  <rdf:RDF xmlns:dc="http://purl.org/dc/elements/1.1/" xmlns:cc="http://creativecommons.org/ns#" xmlns:rdf="http://www.w3.org/1999/02/22-rdf-syntax-ns#">
   <cc:Work>
    <dc:type rdf:resource="http://purl.org/dc/dcmitype/StillImage"/>
    <dc:date>2023-10-12T09:57:43.757405</dc:date>
    <dc:format>image/svg+xml</dc:format>
    <dc:creator>
     <cc:Agent>
      <dc:title>Matplotlib v3.6.2, https://matplotlib.org/</dc:title>
     </cc:Agent>
    </dc:creator>
   </cc:Work>
  </rdf:RDF>
 </metadata>
 <defs>
  <style type="text/css">*{stroke-linejoin: round; stroke-linecap: butt}</style>
 </defs>
 <g id="figure_1">
  <g id="patch_1">
   <path d="M 0 345.6 
L 460.8 345.6 
L 460.8 0 
L 0 0 
z
" style="fill: #ffffff"/>
  </g>
  <g id="axes_1">
   <g id="patch_2">
    <path d="M 57.6 307.584 
L 414.72 307.584 
L 414.72 41.472 
L 57.6 41.472 
z
" style="fill: #ffffff"/>
   </g>
   <g id="matplotlib.axis_1">
    <g id="xtick_1">
     <g id="line2d_1">
      <defs>
       <path id="me34dd36249" d="M 0 0 
L 0 3.5 
" style="stroke: #000000; stroke-width: 0.8"/>
      </defs>
      <g>
       <use xlink:href="#me34dd36249" x="110.310766" y="307.584" style="stroke: #000000; stroke-width: 0.8"/>
      </g>
     </g>
     <g id="text_1">
      <!-- 20 -->
      <g transform="translate(103.948266 322.182437) scale(0.1 -0.1)">
       <defs>
        <path id="DejaVuSans-32" d="M 1228 531 
L 3431 531 
L 3431 0 
L 469 0 
L 469 531 
Q 828 903 1448 1529 
Q 2069 2156 2228 2338 
Q 2531 2678 2651 2914 
Q 2772 3150 2772 3378 
Q 2772 3750 2511 3984 
Q 2250 4219 1831 4219 
Q 1534 4219 1204 4116 
Q 875 4013 500 3803 
L 500 4441 
Q 881 4594 1212 4672 
Q 1544 4750 1819 4750 
Q 2544 4750 2975 4387 
Q 3406 4025 3406 3419 
Q 3406 3131 3298 2873 
Q 3191 2616 2906 2266 
Q 2828 2175 2409 1742 
Q 1991 1309 1228 531 
z
" transform="scale(0.015625)"/>
        <path id="DejaVuSans-30" d="M 2034 4250 
Q 1547 4250 1301 3770 
Q 1056 3291 1056 2328 
Q 1056 1369 1301 889 
Q 1547 409 2034 409 
Q 2525 409 2770 889 
Q 3016 1369 3016 2328 
Q 3016 3291 2770 3770 
Q 2525 4250 2034 4250 
z
M 2034 4750 
Q 2819 4750 3233 4129 
Q 3647 3509 3647 2328 
Q 3647 1150 3233 529 
Q 2819 -91 2034 -91 
Q 1250 -91 836 529 
Q 422 1150 422 2328 
Q 422 3509 836 4129 
Q 1250 4750 2034 4750 
z
" transform="scale(0.015625)"/>
       </defs>
       <use xlink:href="#DejaVuSans-32"/>
       <use xlink:href="#DejaVuSans-30" x="63.623047"/>
      </g>
     </g>
    </g>
    <g id="xtick_2">
     <g id="line2d_2">
      <g>
       <use xlink:href="#me34dd36249" x="183.266844" y="307.584" style="stroke: #000000; stroke-width: 0.8"/>
      </g>
     </g>
     <g id="text_2">
      <!-- 40 -->
      <g transform="translate(176.904344 322.182437) scale(0.1 -0.1)">
       <defs>
        <path id="DejaVuSans-34" d="M 2419 4116 
L 825 1625 
L 2419 1625 
L 2419 4116 
z
M 2253 4666 
L 3047 4666 
L 3047 1625 
L 3713 1625 
L 3713 1100 
L 3047 1100 
L 3047 0 
L 2419 0 
L 2419 1100 
L 313 1100 
L 313 1709 
L 2253 4666 
z
" transform="scale(0.015625)"/>
       </defs>
       <use xlink:href="#DejaVuSans-34"/>
       <use xlink:href="#DejaVuSans-30" x="63.623047"/>
      </g>
     </g>
    </g>
    <g id="xtick_3">
     <g id="line2d_3">
      <g>
       <use xlink:href="#me34dd36249" x="256.222921" y="307.584" style="stroke: #000000; stroke-width: 0.8"/>
      </g>
     </g>
     <g id="text_3">
      <!-- 60 -->
      <g transform="translate(249.860421 322.182437) scale(0.1 -0.1)">
       <defs>
        <path id="DejaVuSans-36" d="M 2113 2584 
Q 1688 2584 1439 2293 
Q 1191 2003 1191 1497 
Q 1191 994 1439 701 
Q 1688 409 2113 409 
Q 2538 409 2786 701 
Q 3034 994 3034 1497 
Q 3034 2003 2786 2293 
Q 2538 2584 2113 2584 
z
M 3366 4563 
L 3366 3988 
Q 3128 4100 2886 4159 
Q 2644 4219 2406 4219 
Q 1781 4219 1451 3797 
Q 1122 3375 1075 2522 
Q 1259 2794 1537 2939 
Q 1816 3084 2150 3084 
Q 2853 3084 3261 2657 
Q 3669 2231 3669 1497 
Q 3669 778 3244 343 
Q 2819 -91 2113 -91 
Q 1303 -91 875 529 
Q 447 1150 447 2328 
Q 447 3434 972 4092 
Q 1497 4750 2381 4750 
Q 2619 4750 2861 4703 
Q 3103 4656 3366 4563 
z
" transform="scale(0.015625)"/>
       </defs>
       <use xlink:href="#DejaVuSans-36"/>
       <use xlink:href="#DejaVuSans-30" x="63.623047"/>
      </g>
     </g>
    </g>
    <g id="xtick_4">
     <g id="line2d_4">
      <g>
       <use xlink:href="#me34dd36249" x="329.178999" y="307.584" style="stroke: #000000; stroke-width: 0.8"/>
      </g>
     </g>
     <g id="text_4">
      <!-- 80 -->
      <g transform="translate(322.816499 322.182437) scale(0.1 -0.1)">
       <defs>
        <path id="DejaVuSans-38" d="M 2034 2216 
Q 1584 2216 1326 1975 
Q 1069 1734 1069 1313 
Q 1069 891 1326 650 
Q 1584 409 2034 409 
Q 2484 409 2743 651 
Q 3003 894 3003 1313 
Q 3003 1734 2745 1975 
Q 2488 2216 2034 2216 
z
M 1403 2484 
Q 997 2584 770 2862 
Q 544 3141 544 3541 
Q 544 4100 942 4425 
Q 1341 4750 2034 4750 
Q 2731 4750 3128 4425 
Q 3525 4100 3525 3541 
Q 3525 3141 3298 2862 
Q 3072 2584 2669 2484 
Q 3125 2378 3379 2068 
Q 3634 1759 3634 1313 
Q 3634 634 3220 271 
Q 2806 -91 2034 -91 
Q 1263 -91 848 271 
Q 434 634 434 1313 
Q 434 1759 690 2068 
Q 947 2378 1403 2484 
z
M 1172 3481 
Q 1172 3119 1398 2916 
Q 1625 2713 2034 2713 
Q 2441 2713 2670 2916 
Q 2900 3119 2900 3481 
Q 2900 3844 2670 4047 
Q 2441 4250 2034 4250 
Q 1625 4250 1398 4047 
Q 1172 3844 1172 3481 
z
" transform="scale(0.015625)"/>
       </defs>
       <use xlink:href="#DejaVuSans-38"/>
       <use xlink:href="#DejaVuSans-30" x="63.623047"/>
      </g>
     </g>
    </g>
    <g id="xtick_5">
     <g id="line2d_5">
      <g>
       <use xlink:href="#me34dd36249" x="402.135077" y="307.584" style="stroke: #000000; stroke-width: 0.8"/>
      </g>
     </g>
     <g id="text_5">
      <!-- 100 -->
      <g transform="translate(392.591327 322.182437) scale(0.1 -0.1)">
       <defs>
        <path id="DejaVuSans-31" d="M 794 531 
L 1825 531 
L 1825 4091 
L 703 3866 
L 703 4441 
L 1819 4666 
L 2450 4666 
L 2450 531 
L 3481 531 
L 3481 0 
L 794 0 
L 794 531 
z
" transform="scale(0.015625)"/>
       </defs>
       <use xlink:href="#DejaVuSans-31"/>
       <use xlink:href="#DejaVuSans-30" x="63.623047"/>
       <use xlink:href="#DejaVuSans-30" x="127.246094"/>
      </g>
     </g>
    </g>
   </g>
   <g id="matplotlib.axis_2">
    <g id="ytick_1">
     <g id="line2d_6">
      <defs>
       <path id="m19b9c06598" d="M 0 0 
L -3.5 0 
" style="stroke: #000000; stroke-width: 0.8"/>
      </defs>
      <g>
       <use xlink:href="#m19b9c06598" x="57.6" y="278.14624" style="stroke: #000000; stroke-width: 0.8"/>
      </g>
     </g>
     <g id="text_6">
      <!-- 0.4 -->
      <g transform="translate(34.696875 281.945458) scale(0.1 -0.1)">
       <defs>
        <path id="DejaVuSans-2e" d="M 684 794 
L 1344 794 
L 1344 0 
L 684 0 
L 684 794 
z
" transform="scale(0.015625)"/>
       </defs>
       <use xlink:href="#DejaVuSans-30"/>
       <use xlink:href="#DejaVuSans-2e" x="63.623047"/>
       <use xlink:href="#DejaVuSans-34" x="95.410156"/>
      </g>
     </g>
    </g>
    <g id="ytick_2">
     <g id="line2d_7">
      <g>
       <use xlink:href="#m19b9c06598" x="57.6" y="230.108114" style="stroke: #000000; stroke-width: 0.8"/>
      </g>
     </g>
     <g id="text_7">
      <!-- 0.5 -->
      <g transform="translate(34.696875 233.907333) scale(0.1 -0.1)">
       <defs>
        <path id="DejaVuSans-35" d="M 691 4666 
L 3169 4666 
L 3169 4134 
L 1269 4134 
L 1269 2991 
Q 1406 3038 1543 3061 
Q 1681 3084 1819 3084 
Q 2600 3084 3056 2656 
Q 3513 2228 3513 1497 
Q 3513 744 3044 326 
Q 2575 -91 1722 -91 
Q 1428 -91 1123 -41 
Q 819 9 494 109 
L 494 744 
Q 775 591 1075 516 
Q 1375 441 1709 441 
Q 2250 441 2565 725 
Q 2881 1009 2881 1497 
Q 2881 1984 2565 2268 
Q 2250 2553 1709 2553 
Q 1456 2553 1204 2497 
Q 953 2441 691 2322 
L 691 4666 
z
" transform="scale(0.015625)"/>
       </defs>
       <use xlink:href="#DejaVuSans-30"/>
       <use xlink:href="#DejaVuSans-2e" x="63.623047"/>
       <use xlink:href="#DejaVuSans-35" x="95.410156"/>
      </g>
     </g>
    </g>
    <g id="ytick_3">
     <g id="line2d_8">
      <g>
       <use xlink:href="#m19b9c06598" x="57.6" y="182.069989" style="stroke: #000000; stroke-width: 0.8"/>
      </g>
     </g>
     <g id="text_8">
      <!-- 0.6 -->
      <g transform="translate(34.696875 185.869208) scale(0.1 -0.1)">
       <use xlink:href="#DejaVuSans-30"/>
       <use xlink:href="#DejaVuSans-2e" x="63.623047"/>
       <use xlink:href="#DejaVuSans-36" x="95.410156"/>
      </g>
     </g>
    </g>
    <g id="ytick_4">
     <g id="line2d_9">
      <g>
       <use xlink:href="#m19b9c06598" x="57.6" y="134.031863" style="stroke: #000000; stroke-width: 0.8"/>
      </g>
     </g>
     <g id="text_9">
      <!-- 0.7 -->
      <g transform="translate(34.696875 137.831082) scale(0.1 -0.1)">
       <defs>
        <path id="DejaVuSans-37" d="M 525 4666 
L 3525 4666 
L 3525 4397 
L 1831 0 
L 1172 0 
L 2766 4134 
L 525 4134 
L 525 4666 
z
" transform="scale(0.015625)"/>
       </defs>
       <use xlink:href="#DejaVuSans-30"/>
       <use xlink:href="#DejaVuSans-2e" x="63.623047"/>
       <use xlink:href="#DejaVuSans-37" x="95.410156"/>
      </g>
     </g>
    </g>
    <g id="ytick_5">
     <g id="line2d_10">
      <g>
       <use xlink:href="#m19b9c06598" x="57.6" y="85.993738" style="stroke: #000000; stroke-width: 0.8"/>
      </g>
     </g>
     <g id="text_10">
      <!-- 0.8 -->
      <g transform="translate(34.696875 89.792957) scale(0.1 -0.1)">
       <use xlink:href="#DejaVuSans-30"/>
       <use xlink:href="#DejaVuSans-2e" x="63.623047"/>
       <use xlink:href="#DejaVuSans-38" x="95.410156"/>
      </g>
     </g>
    </g>
   </g>
   <g id="line2d_11">
    <path d="M 73.832727 92.526913 
L 77.480531 106.698164 
L 81.128335 112.270595 
L 84.776139 91.902429 
L 88.423943 90.028946 
L 92.071747 73.311682 
L 95.719551 90.173056 
L 99.367354 88.347619 
L 103.015158 99.924781 
L 106.662962 84.072203 
L 110.310766 90.941679 
L 113.95857 77.490976 
L 117.606374 93.968067 
L 121.254178 84.216342 
L 124.901982 85.177092 
L 128.549785 78.739974 
L 132.197589 73.503837 
L 135.845393 82.34283 
L 139.493197 71.294061 
L 143.141001 78.211553 
L 146.788805 76.434163 
L 150.436609 69.756843 
L 154.084413 74.272432 
L 157.732217 66.105941 
L 161.38002 78.595865 
L 165.027824 71.870528 
L 168.675628 67.018674 
L 172.323432 65.673612 
L 175.971236 74.320478 
L 179.61904 77.97138 
L 183.266844 70.189201 
L 186.914648 67.258876 
L 190.562451 79.124286 
L 194.210255 67.595141 
L 197.858059 67.547095 
L 201.505863 77.779224 
L 205.153667 69.708826 
L 208.801471 69.997045 
L 212.449275 66.730454 
L 216.097079 63.367772 
L 219.744883 67.210829 
L 223.392686 69.228422 
L 227.04049 66.009877 
L 230.688294 64.664816 
L 234.336098 63.607974 
L 237.983902 71.582308 
L 241.631706 59.524742 
L 245.27951 64.856972 
L 248.927314 64.280504 
L 252.575117 63.704037 
L 256.222921 67.06672 
L 259.870725 57.987525 
L 263.518529 62.503085 
L 267.166333 63.415818 
L 270.814137 65.241254 
L 274.461941 62.310929 
L 278.109745 58.804166 
L 281.757549 58.708073 
L 285.405352 65.097145 
L 289.053156 58.4679 
L 292.70096 59.764916 
L 296.348764 62.83935 
L 299.996568 56.786544 
L 303.644372 61.686445 
L 307.292176 57.603214 
L 310.93998 60.821758 
L 314.587783 55.681685 
L 318.235587 59.71687 
L 321.883391 62.743287 
L 325.531195 61.254116 
L 329.178999 59.332587 
L 332.826803 56.306169 
L 336.474607 61.686445 
L 340.122411 58.708073 
L 343.770215 55.20131 
L 347.418018 60.245291 
L 351.065822 56.114014 
L 354.713626 58.035543 
L 358.36143 62.262912 
L 362.009234 59.188477 
L 365.657038 55.825794 
L 369.304842 60.389429 
L 372.952646 59.42865 
L 376.600449 57.843387 
L 380.248253 54.865044 
L 383.896057 57.507121 
L 387.543861 56.738527 
L 391.191665 59.332587 
L 394.839469 57.843387 
L 398.487273 57.314966 
" clip-path="url(#p092c077462)" style="fill: none; stroke: #1f77b4; stroke-width: 1.5; stroke-linecap: square"/>
   </g>
   <g id="line2d_12">
    <path d="M 73.832727 117.458715 
L 77.480531 104.15215 
L 81.128335 107.226585 
L 84.776139 87.146667 
L 88.423943 105.257039 
L 92.071747 102.038466 
L 95.719551 89.83679 
L 99.367354 93.439646 
L 103.015158 82.583032 
L 106.662962 85.417294 
L 110.310766 80.949723 
L 113.95857 91.518117 
L 117.606374 77.250803 
L 121.254178 77.346867 
L 124.901982 89.548571 
L 128.549785 77.82727 
L 132.197589 77.058647 
L 135.845393 94.784708 
L 139.493197 75.425338 
L 143.141001 74.993009 
L 146.788805 71.822482 
L 150.436609 73.744011 
L 154.084413 66.442235 
L 157.732217 70.045091 
L 161.38002 74.993009 
L 165.027824 64.088349 
L 168.675628 74.944963 
L 172.323432 72.591105 
L 175.971236 67.643187 
L 179.61904 71.486216 
L 183.266844 75.809649 
L 186.914648 67.787297 
L 190.562451 67.739251 
L 194.210255 65.289301 
L 197.858059 66.538299 
L 201.505863 67.499049 
L 205.153667 70.525466 
L 208.801471 67.114766 
L 212.449275 83.783984 
L 216.097079 65.481456 
L 219.744883 67.979452 
L 223.392686 66.490253 
L 227.04049 65.961831 
L 230.688294 66.826518 
L 234.336098 64.520706 
L 237.983902 65.385393 
L 241.631706 65.001081 
L 245.27951 65.817722 
L 248.927314 62.16682 
L 252.575117 63.800129 
L 256.222921 70.141155 
L 259.870725 64.136395 
L 263.518529 62.503085 
L 267.166333 64.32855 
L 270.814137 59.236495 
L 274.461941 67.210829 
L 278.109745 59.236495 
L 281.757549 64.232458 
L 285.405352 61.590381 
L 289.053156 61.158023 
L 292.70096 63.367772 
L 296.348764 60.821758 
L 299.996568 71.774464 
L 303.644372 59.236495 
L 307.292176 63.848175 
L 310.93998 69.900953 
L 314.587783 56.690481 
L 318.235587 63.463864 
L 321.883391 62.407022 
L 325.531195 59.957071 
L 329.178999 57.218902 
L 332.826803 63.031506 
L 336.474607 58.035543 
L 340.122411 58.996321 
L 343.770215 61.302133 
L 347.418018 59.188477 
L 351.065822 62.310929 
L 354.713626 60.197273 
L 358.36143 55.921858 
L 362.009234 58.131635 
L 365.657038 62.070756 
L 369.304842 55.537575 
L 372.952646 59.764916 
L 376.600449 62.791333 
L 380.248253 58.996321 
L 383.896057 59.620806 
L 387.543861 58.948275 
L 391.191665 67.162783 
L 394.839469 59.236495 
L 398.487273 55.20131 
" clip-path="url(#p092c077462)" style="fill: none; stroke: #ff7f0e; stroke-width: 1.5; stroke-linecap: square"/>
   </g>
   <g id="line2d_13">
    <path d="M 73.832727 295.488 
L 77.480531 250.380203 
L 81.128335 231.164956 
L 84.776139 283.670622 
L 88.423943 210.268369 
L 92.071747 192.061905 
L 95.719551 178.659277 
L 99.367354 200.180349 
L 103.015158 191.533512 
L 106.662962 222.229871 
L 110.310766 183.559177 
L 113.95857 186.969877 
L 117.606374 178.947496 
L 121.254178 192.734464 
L 124.901982 166.793867 
L 128.549785 178.419104 
L 132.197589 184.471881 
L 135.845393 186.297347 
L 139.493197 164.584119 
L 143.141001 150.79718 
L 146.788805 167.610507 
L 150.436609 136.097508 
L 154.084413 152.910836 
L 157.732217 166.601711 
L 161.38002 145.416904 
L 165.027824 139.844473 
L 168.675628 129.708436 
L 172.323432 127.882971 
L 175.971236 126.970267 
L 179.61904 126.682019 
L 183.266844 123.175255 
L 186.914648 135.088711 
L 190.562451 120.581195 
L 194.210255 118.467511 
L 197.858059 130.621169 
L 201.505863 126.24969 
L 205.153667 134.656354 
L 208.801471 130.477031 
L 212.449275 117.602824 
L 216.097079 115.48914 
L 219.744883 115.777387 
L 223.392686 125.865378 
L 227.04049 108.859895 
L 230.688294 104.488416 
L 234.336098 104.056087 
L 237.983902 106.986412 
L 241.631706 103.1914 
L 245.27951 103.767839 
L 248.927314 102.038466 
L 252.575117 99.156187 
L 256.222921 110.108864 
L 259.870725 99.348343 
L 263.518529 109.868691 
L 267.166333 101.077716 
L 270.814137 112.222549 
L 274.461941 108.331474 
L 278.109745 103.095308 
L 281.757549 95.313129 
L 285.405352 97.618969 
L 289.053156 99.300296 
L 292.70096 106.842274 
L 296.348764 99.348343 
L 299.996568 95.98566 
L 303.644372 92.671052 
L 307.292176 95.937642 
L 310.93998 100.549294 
L 314.587783 104.008041 
L 318.235587 103.33551 
L 321.883391 111.93433 
L 325.531195 100.068919 
L 329.178999 92.190648 
L 332.826803 100.405185 
L 336.474607 93.487692 
L 340.122411 95.169019 
L 343.770215 86.089825 
L 347.418018 92.43085 
L 351.065822 94.544535 
L 354.713626 90.269119 
L 358.36143 100.501248 
L 362.009234 93.199444 
L 365.657038 93.103381 
L 369.304842 95.457239 
L 372.952646 88.635838 
L 376.600449 91.085788 
L 380.248253 95.889596 
L 383.896057 91.998492 
L 387.543861 95.553331 
L 391.191665 94.064131 
L 394.839469 84.408469 
L 398.487273 88.395636 
" clip-path="url(#p092c077462)" style="fill: none; stroke: #2ca02c; stroke-width: 1.5; stroke-linecap: square"/>
   </g>
   <g id="line2d_14">
    <path d="M 73.832727 108.139318 
L 77.480531 112.89508 
L 81.128335 107.803053 
L 84.776139 111.64611 
L 88.423943 96.706237 
L 92.071747 86.858419 
L 95.719551 92.767115 
L 99.367354 80.325238 
L 103.015158 97.186612 
L 106.662962 88.395636 
L 110.310766 88.491729 
L 113.95857 83.111453 
L 117.606374 73.647947 
L 121.254178 70.717622 
L 124.901982 70.189201 
L 128.549785 79.556643 
L 132.197589 77.346867 
L 135.845393 88.731902 
L 139.493197 76.33807 
L 143.141001 85.081 
L 146.788805 77.875288 
L 150.436609 72.639151 
L 154.084413 71.678372 
L 157.732217 69.612733 
L 161.38002 77.779224 
L 165.027824 73.984212 
L 168.675628 69.51667 
L 172.323432 80.181128 
L 175.971236 73.359699 
L 179.61904 75.857695 
L 183.266844 68.603937 
L 186.914648 73.647947 
L 190.562451 62.599177 
L 194.210255 68.940203 
L 197.858059 64.32855 
L 201.505863 62.695241 
L 205.153667 63.65602 
L 208.801471 67.210829 
L 212.449275 68.17158 
L 216.097079 68.411781 
L 219.744883 68.700001 
L 223.392686 71.390153 
L 227.04049 72.254839 
L 230.688294 67.402985 
L 234.336098 70.573512 
L 237.983902 68.02747 
L 241.631706 59.42865 
L 245.27951 60.869804 
L 248.927314 66.778501 
L 252.575117 66.586345 
L 256.222921 61.830554 
L 259.870725 57.555167 
L 263.518529 62.214866 
L 267.166333 63.271708 
L 270.814137 62.695241 
L 274.461941 62.02271 
L 278.109745 65.049127 
L 281.757549 62.262912 
L 285.405352 60.005118 
L 289.053156 66.682408 
L 292.70096 65.145191 
L 296.348764 66.970628 
L 299.996568 65.481456 
L 303.644372 56.01795 
L 307.292176 62.935443 
L 310.93998 58.563964 
L 314.587783 58.996321 
L 318.235587 60.437447 
L 321.883391 58.131635 
L 325.531195 63.031506 
L 329.178999 63.752083 
L 332.826803 63.367772 
L 336.474607 66.346143 
L 340.122411 56.690481 
L 343.770215 57.699277 
L 347.418018 62.83935 
L 351.065822 62.407022 
L 354.713626 57.459104 
L 358.36143 59.380604 
L 362.009234 65.241254 
L 365.657038 61.782537 
L 369.304842 61.254116 
L 372.952646 63.367772 
L 376.600449 62.599177 
L 380.248253 58.660056 
L 383.896057 53.568 
L 387.543861 55.777748 
L 391.191665 57.555167 
L 394.839469 56.065996 
L 398.487273 56.16206 
" clip-path="url(#p092c077462)" style="fill: none; stroke: #d62728; stroke-width: 1.5; stroke-linecap: square"/>
   </g>
   <g id="patch_3">
    <path d="M 57.6 307.584 
L 57.6 41.472 
" style="fill: none; stroke: #000000; stroke-width: 0.8; stroke-linejoin: miter; stroke-linecap: square"/>
   </g>
   <g id="patch_4">
    <path d="M 414.72 307.584 
L 414.72 41.472 
" style="fill: none; stroke: #000000; stroke-width: 0.8; stroke-linejoin: miter; stroke-linecap: square"/>
   </g>
   <g id="patch_5">
    <path d="M 57.6 307.584 
L 414.72 307.584 
" style="fill: none; stroke: #000000; stroke-width: 0.8; stroke-linejoin: miter; stroke-linecap: square"/>
   </g>
   <g id="patch_6">
    <path d="M 57.6 41.472 
L 414.72 41.472 
" style="fill: none; stroke: #000000; stroke-width: 0.8; stroke-linejoin: miter; stroke-linecap: square"/>
   </g>
   <g id="text_11">
    <!-- 100 Iterations each -->
    <g transform="translate(177.8475 35.472) scale(0.12 -0.12)">
     <defs>
      <path id="DejaVuSans-20" transform="scale(0.015625)"/>
      <path id="DejaVuSans-49" d="M 628 4666 
L 1259 4666 
L 1259 0 
L 628 0 
L 628 4666 
z
" transform="scale(0.015625)"/>
      <path id="DejaVuSans-74" d="M 1172 4494 
L 1172 3500 
L 2356 3500 
L 2356 3053 
L 1172 3053 
L 1172 1153 
Q 1172 725 1289 603 
Q 1406 481 1766 481 
L 2356 481 
L 2356 0 
L 1766 0 
Q 1100 0 847 248 
Q 594 497 594 1153 
L 594 3053 
L 172 3053 
L 172 3500 
L 594 3500 
L 594 4494 
L 1172 4494 
z
" transform="scale(0.015625)"/>
      <path id="DejaVuSans-65" d="M 3597 1894 
L 3597 1613 
L 953 1613 
Q 991 1019 1311 708 
Q 1631 397 2203 397 
Q 2534 397 2845 478 
Q 3156 559 3463 722 
L 3463 178 
Q 3153 47 2828 -22 
Q 2503 -91 2169 -91 
Q 1331 -91 842 396 
Q 353 884 353 1716 
Q 353 2575 817 3079 
Q 1281 3584 2069 3584 
Q 2775 3584 3186 3129 
Q 3597 2675 3597 1894 
z
M 3022 2063 
Q 3016 2534 2758 2815 
Q 2500 3097 2075 3097 
Q 1594 3097 1305 2825 
Q 1016 2553 972 2059 
L 3022 2063 
z
" transform="scale(0.015625)"/>
      <path id="DejaVuSans-72" d="M 2631 2963 
Q 2534 3019 2420 3045 
Q 2306 3072 2169 3072 
Q 1681 3072 1420 2755 
Q 1159 2438 1159 1844 
L 1159 0 
L 581 0 
L 581 3500 
L 1159 3500 
L 1159 2956 
Q 1341 3275 1631 3429 
Q 1922 3584 2338 3584 
Q 2397 3584 2469 3576 
Q 2541 3569 2628 3553 
L 2631 2963 
z
" transform="scale(0.015625)"/>
      <path id="DejaVuSans-61" d="M 2194 1759 
Q 1497 1759 1228 1600 
Q 959 1441 959 1056 
Q 959 750 1161 570 
Q 1363 391 1709 391 
Q 2188 391 2477 730 
Q 2766 1069 2766 1631 
L 2766 1759 
L 2194 1759 
z
M 3341 1997 
L 3341 0 
L 2766 0 
L 2766 531 
Q 2569 213 2275 61 
Q 1981 -91 1556 -91 
Q 1019 -91 701 211 
Q 384 513 384 1019 
Q 384 1609 779 1909 
Q 1175 2209 1959 2209 
L 2766 2209 
L 2766 2266 
Q 2766 2663 2505 2880 
Q 2244 3097 1772 3097 
Q 1472 3097 1187 3025 
Q 903 2953 641 2809 
L 641 3341 
Q 956 3463 1253 3523 
Q 1550 3584 1831 3584 
Q 2591 3584 2966 3190 
Q 3341 2797 3341 1997 
z
" transform="scale(0.015625)"/>
      <path id="DejaVuSans-69" d="M 603 3500 
L 1178 3500 
L 1178 0 
L 603 0 
L 603 3500 
z
M 603 4863 
L 1178 4863 
L 1178 4134 
L 603 4134 
L 603 4863 
z
" transform="scale(0.015625)"/>
      <path id="DejaVuSans-6f" d="M 1959 3097 
Q 1497 3097 1228 2736 
Q 959 2375 959 1747 
Q 959 1119 1226 758 
Q 1494 397 1959 397 
Q 2419 397 2687 759 
Q 2956 1122 2956 1747 
Q 2956 2369 2687 2733 
Q 2419 3097 1959 3097 
z
M 1959 3584 
Q 2709 3584 3137 3096 
Q 3566 2609 3566 1747 
Q 3566 888 3137 398 
Q 2709 -91 1959 -91 
Q 1206 -91 779 398 
Q 353 888 353 1747 
Q 353 2609 779 3096 
Q 1206 3584 1959 3584 
z
" transform="scale(0.015625)"/>
      <path id="DejaVuSans-6e" d="M 3513 2113 
L 3513 0 
L 2938 0 
L 2938 2094 
Q 2938 2591 2744 2837 
Q 2550 3084 2163 3084 
Q 1697 3084 1428 2787 
Q 1159 2491 1159 1978 
L 1159 0 
L 581 0 
L 581 3500 
L 1159 3500 
L 1159 2956 
Q 1366 3272 1645 3428 
Q 1925 3584 2291 3584 
Q 2894 3584 3203 3211 
Q 3513 2838 3513 2113 
z
" transform="scale(0.015625)"/>
      <path id="DejaVuSans-73" d="M 2834 3397 
L 2834 2853 
Q 2591 2978 2328 3040 
Q 2066 3103 1784 3103 
Q 1356 3103 1142 2972 
Q 928 2841 928 2578 
Q 928 2378 1081 2264 
Q 1234 2150 1697 2047 
L 1894 2003 
Q 2506 1872 2764 1633 
Q 3022 1394 3022 966 
Q 3022 478 2636 193 
Q 2250 -91 1575 -91 
Q 1294 -91 989 -36 
Q 684 19 347 128 
L 347 722 
Q 666 556 975 473 
Q 1284 391 1588 391 
Q 1994 391 2212 530 
Q 2431 669 2431 922 
Q 2431 1156 2273 1281 
Q 2116 1406 1581 1522 
L 1381 1569 
Q 847 1681 609 1914 
Q 372 2147 372 2553 
Q 372 3047 722 3315 
Q 1072 3584 1716 3584 
Q 2034 3584 2315 3537 
Q 2597 3491 2834 3397 
z
" transform="scale(0.015625)"/>
      <path id="DejaVuSans-63" d="M 3122 3366 
L 3122 2828 
Q 2878 2963 2633 3030 
Q 2388 3097 2138 3097 
Q 1578 3097 1268 2742 
Q 959 2388 959 1747 
Q 959 1106 1268 751 
Q 1578 397 2138 397 
Q 2388 397 2633 464 
Q 2878 531 3122 666 
L 3122 134 
Q 2881 22 2623 -34 
Q 2366 -91 2075 -91 
Q 1284 -91 818 406 
Q 353 903 353 1747 
Q 353 2603 823 3093 
Q 1294 3584 2113 3584 
Q 2378 3584 2631 3529 
Q 2884 3475 3122 3366 
z
" transform="scale(0.015625)"/>
      <path id="DejaVuSans-68" d="M 3513 2113 
L 3513 0 
L 2938 0 
L 2938 2094 
Q 2938 2591 2744 2837 
Q 2550 3084 2163 3084 
Q 1697 3084 1428 2787 
Q 1159 2491 1159 1978 
L 1159 0 
L 581 0 
L 581 4863 
L 1159 4863 
L 1159 2956 
Q 1366 3272 1645 3428 
Q 1925 3584 2291 3584 
Q 2894 3584 3203 3211 
Q 3513 2838 3513 2113 
z
" transform="scale(0.015625)"/>
     </defs>
     <use xlink:href="#DejaVuSans-31"/>
     <use xlink:href="#DejaVuSans-30" x="63.623047"/>
     <use xlink:href="#DejaVuSans-30" x="127.246094"/>
     <use xlink:href="#DejaVuSans-20" x="190.869141"/>
     <use xlink:href="#DejaVuSans-49" x="222.65625"/>
     <use xlink:href="#DejaVuSans-74" x="252.148438"/>
     <use xlink:href="#DejaVuSans-65" x="291.357422"/>
     <use xlink:href="#DejaVuSans-72" x="352.880859"/>
     <use xlink:href="#DejaVuSans-61" x="393.994141"/>
     <use xlink:href="#DejaVuSans-74" x="455.273438"/>
     <use xlink:href="#DejaVuSans-69" x="494.482422"/>
     <use xlink:href="#DejaVuSans-6f" x="522.265625"/>
     <use xlink:href="#DejaVuSans-6e" x="583.447266"/>
     <use xlink:href="#DejaVuSans-73" x="646.826172"/>
     <use xlink:href="#DejaVuSans-20" x="698.925781"/>
     <use xlink:href="#DejaVuSans-65" x="730.712891"/>
     <use xlink:href="#DejaVuSans-61" x="792.236328"/>
     <use xlink:href="#DejaVuSans-63" x="853.515625"/>
     <use xlink:href="#DejaVuSans-68" x="908.496094"/>
    </g>
   </g>
   <g id="legend_1">
    <g id="patch_7">
     <path d="M 232.880937 302.584 
L 407.72 302.584 
Q 409.72 302.584 409.72 300.584 
L 409.72 242.037125 
Q 409.72 240.037125 407.72 240.037125 
L 232.880937 240.037125 
Q 230.880937 240.037125 230.880937 242.037125 
L 230.880937 300.584 
Q 230.880937 302.584 232.880937 302.584 
z
" style="fill: #ffffff; opacity: 0.8; stroke: #cccccc; stroke-linejoin: miter"/>
    </g>
    <g id="line2d_15">
     <path d="M 234.880937 248.135562 
L 244.880937 248.135562 
L 254.880937 248.135562 
" style="fill: none; stroke: #1f77b4; stroke-width: 1.5; stroke-linecap: square"/>
    </g>
    <g id="text_12">
     <!-- acc init -->
     <g transform="translate(262.880937 251.635562) scale(0.1 -0.1)">
      <use xlink:href="#DejaVuSans-61"/>
      <use xlink:href="#DejaVuSans-63" x="61.279297"/>
      <use xlink:href="#DejaVuSans-63" x="116.259766"/>
      <use xlink:href="#DejaVuSans-20" x="171.240234"/>
      <use xlink:href="#DejaVuSans-69" x="203.027344"/>
      <use xlink:href="#DejaVuSans-6e" x="230.810547"/>
      <use xlink:href="#DejaVuSans-69" x="294.189453"/>
      <use xlink:href="#DejaVuSans-74" x="321.972656"/>
     </g>
    </g>
    <g id="line2d_16">
     <path d="M 234.880937 262.813688 
L 244.880937 262.813688 
L 254.880937 262.813688 
" style="fill: none; stroke: #ff7f0e; stroke-width: 1.5; stroke-linecap: square"/>
    </g>
    <g id="text_13">
     <!-- acc init_bias_0 -->
     <g transform="translate(262.880937 266.313688) scale(0.1 -0.1)">
      <defs>
       <path id="DejaVuSans-5f" d="M 3263 -1063 
L 3263 -1509 
L -63 -1509 
L -63 -1063 
L 3263 -1063 
z
" transform="scale(0.015625)"/>
       <path id="DejaVuSans-62" d="M 3116 1747 
Q 3116 2381 2855 2742 
Q 2594 3103 2138 3103 
Q 1681 3103 1420 2742 
Q 1159 2381 1159 1747 
Q 1159 1113 1420 752 
Q 1681 391 2138 391 
Q 2594 391 2855 752 
Q 3116 1113 3116 1747 
z
M 1159 2969 
Q 1341 3281 1617 3432 
Q 1894 3584 2278 3584 
Q 2916 3584 3314 3078 
Q 3713 2572 3713 1747 
Q 3713 922 3314 415 
Q 2916 -91 2278 -91 
Q 1894 -91 1617 61 
Q 1341 213 1159 525 
L 1159 0 
L 581 0 
L 581 4863 
L 1159 4863 
L 1159 2969 
z
" transform="scale(0.015625)"/>
      </defs>
      <use xlink:href="#DejaVuSans-61"/>
      <use xlink:href="#DejaVuSans-63" x="61.279297"/>
      <use xlink:href="#DejaVuSans-63" x="116.259766"/>
      <use xlink:href="#DejaVuSans-20" x="171.240234"/>
      <use xlink:href="#DejaVuSans-69" x="203.027344"/>
      <use xlink:href="#DejaVuSans-6e" x="230.810547"/>
      <use xlink:href="#DejaVuSans-69" x="294.189453"/>
      <use xlink:href="#DejaVuSans-74" x="321.972656"/>
      <use xlink:href="#DejaVuSans-5f" x="361.181641"/>
      <use xlink:href="#DejaVuSans-62" x="411.181641"/>
      <use xlink:href="#DejaVuSans-69" x="474.658203"/>
      <use xlink:href="#DejaVuSans-61" x="502.441406"/>
      <use xlink:href="#DejaVuSans-73" x="563.720703"/>
      <use xlink:href="#DejaVuSans-5f" x="615.820312"/>
      <use xlink:href="#DejaVuSans-30" x="665.820312"/>
     </g>
    </g>
    <g id="line2d_17">
     <path d="M 234.880937 277.769937 
L 244.880937 277.769937 
L 254.880937 277.769937 
" style="fill: none; stroke: #2ca02c; stroke-width: 1.5; stroke-linecap: square"/>
    </g>
    <g id="text_14">
     <!-- acc init_big_values -->
     <g transform="translate(262.880937 281.269937) scale(0.1 -0.1)">
      <defs>
       <path id="DejaVuSans-67" d="M 2906 1791 
Q 2906 2416 2648 2759 
Q 2391 3103 1925 3103 
Q 1463 3103 1205 2759 
Q 947 2416 947 1791 
Q 947 1169 1205 825 
Q 1463 481 1925 481 
Q 2391 481 2648 825 
Q 2906 1169 2906 1791 
z
M 3481 434 
Q 3481 -459 3084 -895 
Q 2688 -1331 1869 -1331 
Q 1566 -1331 1297 -1286 
Q 1028 -1241 775 -1147 
L 775 -588 
Q 1028 -725 1275 -790 
Q 1522 -856 1778 -856 
Q 2344 -856 2625 -561 
Q 2906 -266 2906 331 
L 2906 616 
Q 2728 306 2450 153 
Q 2172 0 1784 0 
Q 1141 0 747 490 
Q 353 981 353 1791 
Q 353 2603 747 3093 
Q 1141 3584 1784 3584 
Q 2172 3584 2450 3431 
Q 2728 3278 2906 2969 
L 2906 3500 
L 3481 3500 
L 3481 434 
z
" transform="scale(0.015625)"/>
       <path id="DejaVuSans-76" d="M 191 3500 
L 800 3500 
L 1894 563 
L 2988 3500 
L 3597 3500 
L 2284 0 
L 1503 0 
L 191 3500 
z
" transform="scale(0.015625)"/>
       <path id="DejaVuSans-6c" d="M 603 4863 
L 1178 4863 
L 1178 0 
L 603 0 
L 603 4863 
z
" transform="scale(0.015625)"/>
       <path id="DejaVuSans-75" d="M 544 1381 
L 544 3500 
L 1119 3500 
L 1119 1403 
Q 1119 906 1312 657 
Q 1506 409 1894 409 
Q 2359 409 2629 706 
Q 2900 1003 2900 1516 
L 2900 3500 
L 3475 3500 
L 3475 0 
L 2900 0 
L 2900 538 
Q 2691 219 2414 64 
Q 2138 -91 1772 -91 
Q 1169 -91 856 284 
Q 544 659 544 1381 
z
M 1991 3584 
L 1991 3584 
z
" transform="scale(0.015625)"/>
      </defs>
      <use xlink:href="#DejaVuSans-61"/>
      <use xlink:href="#DejaVuSans-63" x="61.279297"/>
      <use xlink:href="#DejaVuSans-63" x="116.259766"/>
      <use xlink:href="#DejaVuSans-20" x="171.240234"/>
      <use xlink:href="#DejaVuSans-69" x="203.027344"/>
      <use xlink:href="#DejaVuSans-6e" x="230.810547"/>
      <use xlink:href="#DejaVuSans-69" x="294.189453"/>
      <use xlink:href="#DejaVuSans-74" x="321.972656"/>
      <use xlink:href="#DejaVuSans-5f" x="361.181641"/>
      <use xlink:href="#DejaVuSans-62" x="411.181641"/>
      <use xlink:href="#DejaVuSans-69" x="474.658203"/>
      <use xlink:href="#DejaVuSans-67" x="502.441406"/>
      <use xlink:href="#DejaVuSans-5f" x="565.917969"/>
      <use xlink:href="#DejaVuSans-76" x="615.917969"/>
      <use xlink:href="#DejaVuSans-61" x="675.097656"/>
      <use xlink:href="#DejaVuSans-6c" x="736.376953"/>
      <use xlink:href="#DejaVuSans-75" x="764.160156"/>
      <use xlink:href="#DejaVuSans-65" x="827.539062"/>
      <use xlink:href="#DejaVuSans-73" x="889.0625"/>
     </g>
    </g>
    <g id="line2d_18">
     <path d="M 234.880937 292.726187 
L 244.880937 292.726187 
L 254.880937 292.726187 
" style="fill: none; stroke: #d62728; stroke-width: 1.5; stroke-linecap: square"/>
    </g>
    <g id="text_15">
     <!-- acc init_negative_biases_too -->
     <g transform="translate(262.880937 296.226187) scale(0.1 -0.1)">
      <use xlink:href="#DejaVuSans-61"/>
      <use xlink:href="#DejaVuSans-63" x="61.279297"/>
      <use xlink:href="#DejaVuSans-63" x="116.259766"/>
      <use xlink:href="#DejaVuSans-20" x="171.240234"/>
      <use xlink:href="#DejaVuSans-69" x="203.027344"/>
      <use xlink:href="#DejaVuSans-6e" x="230.810547"/>
      <use xlink:href="#DejaVuSans-69" x="294.189453"/>
      <use xlink:href="#DejaVuSans-74" x="321.972656"/>
      <use xlink:href="#DejaVuSans-5f" x="361.181641"/>
      <use xlink:href="#DejaVuSans-6e" x="411.181641"/>
      <use xlink:href="#DejaVuSans-65" x="474.560547"/>
      <use xlink:href="#DejaVuSans-67" x="536.083984"/>
      <use xlink:href="#DejaVuSans-61" x="599.560547"/>
      <use xlink:href="#DejaVuSans-74" x="660.839844"/>
      <use xlink:href="#DejaVuSans-69" x="700.048828"/>
      <use xlink:href="#DejaVuSans-76" x="727.832031"/>
      <use xlink:href="#DejaVuSans-65" x="787.011719"/>
      <use xlink:href="#DejaVuSans-5f" x="848.535156"/>
      <use xlink:href="#DejaVuSans-62" x="898.535156"/>
      <use xlink:href="#DejaVuSans-69" x="962.011719"/>
      <use xlink:href="#DejaVuSans-61" x="989.794922"/>
      <use xlink:href="#DejaVuSans-73" x="1051.074219"/>
      <use xlink:href="#DejaVuSans-65" x="1103.173828"/>
      <use xlink:href="#DejaVuSans-73" x="1164.697266"/>
      <use xlink:href="#DejaVuSans-5f" x="1216.796875"/>
      <use xlink:href="#DejaVuSans-74" x="1266.796875"/>
      <use xlink:href="#DejaVuSans-6f" x="1306.005859"/>
      <use xlink:href="#DejaVuSans-6f" x="1367.1875"/>
     </g>
    </g>
   </g>
  </g>
 </g>
 <defs>
  <clipPath id="p092c077462">
   <rect x="57.6" y="41.472" width="357.12" height="266.112"/>
  </clipPath>
 </defs>
</svg>
